<svg enable-background="new 0 0 840 403.59103" viewBox="0 0 840 403.59103" xmlns="http://www.w3.org/2000/svg"><g fill="#fff"><path d="m95.86646 171.89085c4.33849 2.24525 6.924-1.64384 8.84385-6.22392 2.04028-4.86711 2.64023-12.41429 12.22385-11.19167 0 5.60252.41324 11.2692-.1062 16.84874-.63012 6.76857 1.28751 13.01706 7.16628 15.27208 2.78091 1.06677 8.0471-3.03766 11.58343-5.62579 3.75497-2.7482 6.7946-6.47598 10.14655-9.77599.70213.55272 1.40433 1.10548 2.10663 1.6582-3.69862 6.51123-7.39706 13.0224-11.87906 20.91298 3.57063-2.22812 5.73186-3.57675 7.89313-4.92534-2.09726 7.41597-8.87424 8.50902-14.13712 11.61934-2.92714 1.73-7.94967 3.47923-8.09425 5.50177-.20696 2.8927 2.61794 6.75853 5.23345 8.84645 1.91927 1.53203 5.58059.87744 10.04081 1.37202-5.85059 5.79398-11.20443 11.09602-16.75445 16.59236 2.68128 4.67451 5.11393 8.91541 7.34223 12.79991 15.63936-8.95958 30.49596-17.4707 45.35251-25.98181.737.68842 1.47406 1.37685 2.21106 2.06528-2.34 15.01451-4.68005 30.02914-7.31348 46.92662 2.62985-3.16183 4.17638-4.62384 5.24757-6.37689 5.18294-8.48154 10.31636-16.99577 15.30324-25.5938 2.29655-3.95947 4.22565-8.13322 6.30544-12.21785 1.05942-2.0806 2.44473-6.06653 3.063-5.94814 2.94528.56367 6.91458-.84308 7.94156 4.68112 1.06734 5.74039 4.59404 10.97778 6.21727 16.67169 1.6669 5.84738 5.78398 6.14644 10.37393 5.78006 5.27638-.4212 5.98332-3.79095 5.45805-8.45232-1.14423-10.15439-2.689-20.37729-2.48396-30.54008.22861-11.32521 1.10612-22.87875 3.70859-33.85603 3.5843-15.11975 9.20113-29.74734 13.66463-44.67049 3.77199-12.61119-11.25822-30.96118-24.19618-29.45061-3.80986.44487-7.40913 2.52746-11.15878 3.68517-23.94743 7.39349-47.90984 14.73839-70.98691 21.82878 5.66167-8.43932 11.79366-18.37548 18.7832-27.66504 3.52818-4.68917 8.60951-8.20741 12.98865-12.25509 1.72331-.28271.71483-2.66918 1.50291-3.78971 2.51985-3.58328 5.23772-7.42499 8.80649-9.72547 2.21899-1.43026 7.23711-1.57266 9.06503-.01663 7.88734 6.71392 15.0605 14.26832 22.83241 21.84729 3.37677-1.87525 7.97058-2.81801 9.20848-5.38332 6.49364-13.45917 12.31752-27.25632 17.91733-41.12091 1.05101-2.60204.47244-6.131-.10796-9.08376-4.70665-23.94179-28.57487-35.01-48.75186-37.09718-1.64143-.16976-3.56921.25104-5.04543 1.01456-10.48291 5.42198-20.84753 11.07354-31.33656 16.48326-2.32933 1.20141-5.60797 1.0682-7.39961 2.70273-4.27084 3.89636-8.00647 8.40254-11.78503 12.81121-3.52988 4.11863-6.83635 8.42899-10.24113 12.65501-.69017-.1277-1.38033-.25536-2.0705-.38301-.3659-6.44295-1.00588-12.88437-1.04166-19.32913-.07922-14.27143-7.99832-20.20895-21.23304-15.96585.47419 4.72078.553 9.43736 1.48653 13.97782 1.92506 9.36131-3.01605 19.35541 2.85898 28.42277.83051 1.28178.12939 4.52179-1.00191 5.95358-6.28702 7.95681-2.50726 16.28251-1.28496 24.49768.11402.76675 1.65073 2.0369 2.27978 1.90374 8.86153-1.8761 11.09425 6.78117 16.61185 10.14639 1.97569 1.20504 4.88593 1.84624 7.12387 1.42776 3.59666-.67258 6.98882-2.43982 10.27509-3.67233.84819 1.68176 1.40607 2.28783 1.27345 2.59688-5.16548 12.03514-10.83961 23.72009-21.03091 32.54934-2.08501 1.80634-3.51943 4.37881-5.19524 6.64162-2.34947 3.17241-4.25741 6.78372-7.04455 9.49684-5.47353 5.32805-11.44087 10.14645-17.14636 15.24025-.51916.46355-1.08294 1.75061-.84898 2.05318 2.93383 3.79442 5.32328 8.8091 9.23497 10.83368zm65.7982 29.83469c8.65526-3.24274 16.79488-7.86441 26.71587-12.62447-9.59349-7.29961-17.08444-12.99942-26.41263-20.09714 5.44887-3.33485 9.06657-5.52631 12.66096-7.75566 3.26276-2.02368 9.5314-5.08223 9.24138-5.96902-1.5231-4.65573-3.75032-10.41962-7.56615-12.63559-4.46901-2.59534-10.8239-1.93672-17.93234-2.90332-2.1398-10.85695.71936-14.36809 15.32817-17.47795 7.38232-1.57153 14.50983-4.78185 21.9337-5.59549 7.43454-.81477 15.22096-.21857 22.57193 1.20919 1.9758.38374 4.48064 6.25916 4.075 9.25125-1.55521 11.4726-4.99481 22.71149-6.23372 34.19936-1.65013 15.29939-2.10101 30.74289-2.63808 46.13951-.16728 4.79524-1.62007 7.07706-6.44102 6.19951-5.67273-1.03255-13.50168 1.09897-13.34064-9.08398.01633-1.03703-4.1465-3.4088-5.80801-2.97993-6.52086 1.68306-15.2962-.32767-17.6366 9.41557-.20282.84428-1.27136 1.77013-2.15068 2.1163-7.72462 3.04146-15.4976 5.95993-23.84106 9.13744.51376-12.72959 8.10174-17.03438 17.47392-20.54558zm-8.3172-16.84169c2.22993-4.51401 4.45982-9.02808 6.68977-13.54214.78406.24565 1.56807.4913 2.35207.73701.80431 3.16457 1.60851 6.32921 2.60645 10.25594-3.28278 1.4482-6.40213 2.82431-9.52148 4.20041-.70895-.55045-1.41787-1.10084-2.12681-1.65122zm37.93786-169.72501c7.00735-.87647 23.29317 8.96405 25.72054 15.70777.78395 2.17805 1.02902 4.55056 1.65625 7.46432-1.85855 6.67929-3.50288 13.85829-6.02971 20.71115-.57745 1.5658-4.74498 3.36539-6.32785 2.73009-6.9789-2.80126-13.80196-6.1444-20.24889-10.01358-1.623-.97414-2.19586-4.59727-2.29628-7.04226-.25407-6.19185.63976-12.47559-.06192-18.59195-.72871-6.35198 1.33056-10.18284 7.58786-10.96554zm-18.91481 10.63718c-.41687 5.10413-.72282 8.85122-1.17491 14.38682-4.38101-3.09073-7.36525-5.19602-12.01752-8.47814 5.47002-2.44993 8.70727-3.89983 13.19243-5.90868zm-13.88475 12.88511c10.53156 8.87312 9.46468 20.18051-3.87817 28.46891 1.3945-10.23658 2.6104-19.16221 3.87817-28.46891zm-37.62896 40.3818c.73865-7.85539.83634-14.70723 2.29509-21.25524.51043-2.29083 4.13737-4.31354 6.76189-5.59594 3.22969-1.57823 6.89934-2.25439 11.03365-3.52108v22.45415c-6.33221 2.49561-12.71138 5.0098-20.09063 7.91811zm4.86298 63.97656c6.39419-2.46321 12.78837-4.92636 19.23319-7.40903 3.41885 10.34033 2.80075 11.31459-11.0307 16.62015-8.70872 3.34065-3.67604-6.86607-9.15587-6.83566.31781-.79178.63557-1.58362.95338-2.37546z"/><path d="m12.01548 131.0421c5.087 2.71062 7.00004 2.83179 9.96426-1.48515 7.5946-11.06065 15.34939-22.0112 23.02247-33.01805 1.91026-2.74008 3.75344-5.52704 5.6273-8.29249.64117.31813 1.28241.63632 1.92364.95445-.57722 2.70007-.57898 5.70622-1.82362 8.05132-9.3021 17.52597-19.00378 34.83984-28.27011 52.38432-6.95536 13.1689-13.47264 26.57028-20.10684 39.90695-.53225 1.06979-1.08481 2.97745-.56497 3.58658 3.49681 4.09695 6.80272 10.31656 11.11161 11.18854 4.01954.81352 10.51607-3.06337 13.57958-6.80008 5.0591-6.17096 8.14903-13.93968 12.22907-20.94147 3.08381-5.29234 6.41777-10.43864 9.64038-15.64993 1.04744.02991 2.09499.05988 3.14243.08984 2.88869 15.03757 5.80574 30.0699 8.58852 45.12711.15139.81868-.63834 2.01225-1.30356 2.74683-2.91121 3.21446-5.40929 7.58994-9.069 9.12088-3.77324 1.57846-8.71808.35066-15.42333.35066 2.64891 4.07321 4.32715 8.5182 7.50797 11.12831 5.39494 4.42688 11.8299 7.55933 17.65605 11.49077 5.80154 3.9147 13.94774 1.96049 18.58487-3.54202 6.8829-8.1675 4.09104-18.01364 5.0117-26.9984.36487-3.56099-1.36525-11.24622-9.67662-10.14827.64555-3.31505 1.26982-6.5211 1.89416-9.72711-.29615-.10954-.59241-.21904-.88856-.32858-.75702 1.31113-1.51404 2.62225-2.27111 3.93336-.50282.00511-1.00576.01028-1.50859.01538-.96199-17.53902-2.07288-35.07198-2.78522-52.62109-.1879-4.63014.58749-9.35756 1.39984-13.95552.9917-5.61337 3.00816-11.07735 3.65784-16.71268 1.31042-11.36574 3.16285-22.85816 2.63371-34.19745-.60993-13.07099.49965-24.35261 8.40509-35.89889 6.56531-9.58885-2.68253-21.98566-14.33739-21.48891-1.68227.07169-3.80533 2.71017-4.75201 4.63905-2.50851 5.11094-4.48426 10.48393-5.91098 13.92004-13.16997-4.97052-25.19854-9.89887-37.52633-13.90489-3.3148-1.07716-8.3667-.50385-11.08932 1.45035-2.25262 1.61694-3.44006 6.566-2.96195 9.71332.69964 4.6055 4.52702 3.75361 8.13905 2.43085 2.02185-.74047 5.0003-1.25703 6.62173-.30093 8.77472 5.17343 17.25994 10.83862 26.5537 16.788-13.21981 18.39103-25.6665 35.70648-38.11308 53.02199-.94073-.26166-1.8814-.52332-2.82207-.78497-1.12523-13.41115-2.25047-26.8223-3.37564-40.23344-1.05356.01646-2.10701.03297-3.16052.04943-.35013 13.54198-.52182 27.09173-1.10822 40.62343-.45106 10.40833 1.39167 18.69037 11.95407 24.31856zm22.5704 30.87036c-.65926-.39078-1.31847-.78157-1.97768-1.17235 4.81631-8.07851 9.63256-16.15707 15.43195-25.88435 2.91608 10.52156-2.35548 19.58058-13.45427 27.0567z"/><path d="m580.54443 68.23696c-4.66852-4.01851-10.28601-5.798-15.40277-4.88623-2.38232.42501-4.82819.80597-7.1933 1.17467-3.7287.58121-7.58527 1.18194-11.36652 1.97883-8.65308 1.82309-17.10291 3.73653-26.0481 5.76213-3.64606.82595-7.32123 1.65826-11.03717 2.48966l-3.06369.6861 1.55133 2.73168c5.20743 9.16946 13.55569 13.43407 23.19485 11.98968l-.00183.00091c-3.22784 1.88802-6.58545 4.2687-7.01825 7.60883-4.12781 31.92738-7.65234 60.9351-10.77502 88.67871-.38556 3.42641-.77838 6.85371-1.1712 10.28102-2.11472 18.43791-4.30112 37.50334-5.28455 56.35173-.16238 3.11945-.39825 6.31882-.62686 9.41376-1.09866 14.87982-2.2345 30.26547 3.8847 45.18619.18414.44952.23767.86182.20956 1.05524-1.87161 12.97729-.75662 22.96771 4.2594 38.17902.18231.55396.3692 1.10974.55701 1.66824 1.54498 4.59244 3.02466 8.99146 2.59467 13.4368l-2.77972-3.61801.58423 3.62708-8.17313-5.75305 8.63943 11.13016c-1.11224 1.73636-2.37598 3.65524-4.21674 6.4505l-.63324.96262 10.16174 28.97229 5.34808-1.93887-4.78467-29.67792 3.24146 2.28125 1.11224-2.67538c.6496-1.56473.96893-3.0795 1.2774-4.54523.52252-2.48285.9743-4.62787 2.93298-6.89548 3.01746-3.49451 2.83417-9.09137 2.65729-14.50476-.07257-2.21951-.14062-4.31549-.00275-6.22256l.16968-2.34119-2.47308-.1553c-2.55383-80.51724-1.37805-148.49586 3.66241-212.65805l13.31433 18.34937 1.78448-.95627c11.06897-5.92606 18.80481-13.58801 25.86664-25.61901.83099-1.41488 1.67834-2.80887 2.52112-4.19559 4.97614-8.18549 10.12274-16.64979 10.40399-27.58876.14884-5.78031-2.79507-11.84213-7.87643-16.21481zm-45.87347 24.00571.0871-2.85019c6.79688-1.69731 13.75067-2.63632 21.75598-3.71792 2.62915-.35508 5.31995-.71834 8.11688-1.12428-.93988 2.55141-1.84711 5.00656-2.72803 7.38906-2.98651 8.07788-5.56482 15.05419-8.08783 22.22711-.47809 1.35948-1.28912 3.0627-2.44043 3.45592-.96979.33283-2.52203-.16119-4.47888-1.42941-8.66943-5.61682-12.55414-13.22701-12.22479-23.95029z"/><path d="m488.76212 146.45483c-1.49875-.30605-3.0773-.74559-4.7475-1.21056-4.97064-1.38219-10.10822-2.8125-14.33221-.98805-4.92529 2.12868-8.82816 6.32973-12.60217 10.39273-1.5704 1.69095-3.19522 3.44002-4.86359 5.00656l-.27579.25882c.03717-6.06001-.31662-12.22444-3.9437-17.97839.03812-.13623.08347-.28607.11975-.40594.11887-.39413.25403-.84003.33658-1.30681l.48175-2.7226-2.76157-.00818c-.02359 0-.04718 0-.07077 0-4.46353 0-7.90097 1.26323-10.21619 3.75424-2.5148 2.70444-3.58804 6.75381-3.1925 12.03645l.22137 2.92329c.72849 9.5645 1.48148 19.45503 1.13947 29.07947-.1633 4.58972 1.48419 10.1666 10.26245 10.67061.10068.00545.20139.00818.30389.00818 3.53543 0 7.77667-3.41823 9.46503-6.61668 1.72281-3.26204 1.22382-8.15962-.12158-11.11107-2.11292-4.63695-2.14102-9.69164-2.06573-15.03603l7.08176 2.15501c-.0127.02089-.02451.04086-.0372.06175-.9689 1.62375-1.80536 3.02681-2.49847 4.55612-4.0462 8.93607-.34476 20.26781 7.92273 24.24908 2.19818 1.0598 4.75201 2.10506 7.23053 1.09612 1.8598-.75829 3.26871-2.51372 4.30566-5.3671 2.7171-7.47668 5.93137-14.94884 9.03952-22.1758 1.85071-4.30367 3.76495-8.75354 5.56213-13.17526.77478-1.90436.61874-5.59866-.05988-6.86369-.36468-.68108-.96435-1.13697-1.68377-1.28227z"/><path d="m508.4805 117.24641c-.06805-2.87062-1.25287-6.74609-3.6915-8.47247-3.81848-2.70398-7.80841-4.92892-11.66681-7.08029-1.39349-.77691-2.74979-1.53339-4.04074-2.2826l-.978-.56759-27.33264 10.93851c8.44073-15.06418 17.77328-27.05069 35.3443-29.21796 1.89972-.2343 3.98901-.63206 4.74292-2.40066.15424-.36008.32751-.73832.50443-1.12655 1.10135-2.41338 2.35059-5.14868 1.36536-7.55298-1.20114-2.9301-5.26004-5.0565-8.45346-6.32426-4.40363-1.74771-10.77231-3.23161-14.22879-1.66053-4.62683 2.1037-9.18106 4.36996-13.5856 6.56174-1.8353.91359-3.65063 1.81718-5.44513 2.69581l-5.94226 2.90922 11.34656 2.54369c-1.77179 2.86926-3.49188 5.72263-5.16843 8.5047-5.04413 8.36622-9.80792 16.26883-15.33377 23.68014-4.99786 6.70478-10.79501 13.05947-16.40161 19.20528-3.17343 3.47908-6.45486 7.07666-9.5784 10.72011-1.15851 1.35222-1.15308 3.17667-1.14853 4.6424.00089.50948.00272.99078-.03992 1.36674l-.30848 2.69534 2.70804-.10806c.39465-.01636.90268.02452 1.43976.0672.50171.03905 1.04239.08173 1.59399.08173 1.16397 0 2.37234-.1907 3.34128-1.00803.99976-.84003 2.01312-1.67461 3.02921-2.5101 4.49707-3.69884 9.14838-7.52391 12.79358-12.18356 5.31995-6.79786 12.22748-8.16552 20.97308-9.89642.68585-.13577 1.37714-.27245 2.07571-.41366l-9.64465 13.1998 7.59613-3.10446c2.7879-1.13972 5.45694-2.36707 8.03796-3.55355 9.86871-4.53751 18.38931-8.45521 28.31064-5.20135 2.12833.70245 4.79465-1.1102 5.56216-1.68141 1.52503-1.13428 2.25263-2.26809 2.22361-3.46592z"/><path d="m438.64465 89.67309c10.65164-7.38225 17.25983-16.83232 19.63947-28.08868 2.07663-9.81606-.64322-14.08294-10.77686-16.91088-1.17575-.32829-2.36057-.62344-3.61072-.93447-.58606-.14576-1.18665-.29514-1.80807-.45361l-1.71283-.43636-.87729 1.53566c-1.63116 2.85836-3.26871 5.65406-4.88629 8.41525-4.30292 7.3491-8.36816 14.29-11.92172 21.64454-1.69833 3.51585-1.03424 10.53439 1.9986 13.17072 2.00223 1.74136 6.04117 3.19437 9.55026 3.19437 1.6856-.00001 3.24966-.33556 4.40545-1.13654z"/><path d="m309.4296 178.15245c-2.6409 1.42305-4.13962 4.69598-5.15073 7.38861-2.97159 7.91623 1.79993 12.39426 5.63336 15.99229 1.24335 1.16696 2.52887 2.37387 3.55585 3.65344l2.02356 2.5219 2.62729-4.1057 6.90213 9.32294.43228-6.28975c1.88474-27.42757 11.54797-50.77759 20.89279-73.35933l1.53998-3.72473c4.66675-11.30813 11.3602-21.03156 17.29205-29.05041 5.76852-7.79772 10.91245-16.19662 15.88672-24.31901 2.67133-4.36224 5.43381-8.87296 8.2507-13.21975.66589-1.02665 1.62982-1.98882 2.65091-3.0073 1.53546-1.53157 3.12354-3.11536 4.02533-5.23359.39191-.92131 3.74408-9.10362.63504-12.64445-2.68265-3.05407-6.884-5.35029-13.2218-7.22559-3.51318-1.04617-7.21783 6.36786-7.9241 7.86356-2.32156 4.92029-5.06409 9.7543-7.71634 14.42939-4.21539 7.43038-8.5741 15.11368-11.56747 23.62519-2.11337 6.00733-6.05658 11.34219-10.23114 16.98989-2.81509 3.80827-5.72546 7.74596-8.05429 11.94473-5.48956 9.89597-9.78345 19.94587-14.8262 32.05589-1.97546 4.74503-3.47693 9.76338-4.92892 14.61557-.25992.87-.52347 1.75089-.79199 2.63722l-3.18298-3.82689-.52936 5.55598c-.04401.46223-.15787 1.00894-.27808 1.58742-.33884 1.63193-.72351 3.47998.08392 5.18456 2.35921 4.98022 1.30501 7.76367-4.02851 10.63792z"/><path d="m407.74301 123.42855c.40097-1.56063.81192-3.15895 1.18845-4.76454l15.97974-5.70537-19.47617.99396c.19507-1.9911.39011-3.95676.58246-5.90063.93713-9.44917 1.82169-18.37434 2.4776-27.34538v-.00045c.17871-2.44471-.79745-7.85766-2.24628-9.41739-.50623-.54533-1.17212-.84547-1.87613-.84547-4.89261.00045-8.8009.8818-11.61603 2.61816-2.47852 1.52885-4.22897 3.87548-5.9223 6.14446-.66907.89633-1.30051 1.74316-1.96323 2.52371-7.00464 8.24997-14.00473 16.50358-21.00528 24.75719l-8.96512 10.56935 7.358 7.14432 30.90528-34.34258c-.00543 1.63284-.0127 3.24523-.01996 4.84219-.03445 7.82815-.06714 15.22266.07574 22.65121.12384 6.44733-2.46899 10.95213-6.56598 14.91161.15649-.32011.31027-.64204.45905-.96716.02814-.06039 2.65363-6.14945-.09027-8.37167-1.99042-1.61375-6.30469-3.14669-8.89618-1.69367-5.85788 3.27883-11.59424 6.93726-17.14142 10.47581-1.93918 1.23689-3.87836 2.47377-5.82571 3.69658l-1.55814.97897 1.88928 5.52147 9.50085 3.05588.09979.0327c-6.00897 11.04659-14.67972 19.67934-23.40805 27.41484-2.52026 2.23402-4.99243 8.29131-3.28003 11.53607 1.45471 2.7562 4.07339 4.71777 6.84586 6.79559 1.21658.91177 2.47488 1.85442 3.73999 2.92966l1.80945 1.53838 19.78101-24.38167.04218 2.10143c.44589 22.13313 11.86597 37.86206 31.33258 43.15196.51892.14076 1.27283.22977 2.12018.22977 2.27893 0 5.23465-.64114 6.121-2.63087 1.11496-2.50282.53979-5.65407-.08618-8.12148-.58789-2.31393-1.37265-4.60062-2.13199-6.81194-1.36627-3.97946-2.65723-7.73824-2.82053-11.48613-.69403-15.86424-.70944-32.56216-.04535-49.6297.18235-4.67553 1.37171-9.30158 2.63184-14.19917zm-17.02258 22.56948c-.577 12.70575-1.21115 26.16888-2.02765 39.4059-.09753 1.58015-.51801 3.20119-.98206 4.90848-.00772-.00453-.01498-.00908-.02267-.01271-1.84076-1.05617-3.5799-2.0533-4.51569-3.35556-1.99542-2.7789-3.57172-5.96648-5.39703-9.65805-.86142-1.74181-1.75229-3.54355-2.77701-5.4906l-2.04895-3.89317z"/><path d="m819.36414 45.0772c-6.94751-7.84449-17.15912-10.736-31.20831-8.83708-16.80804 2.26944-31.64056 9.52364-45.98553 16.53899-4.22351 2.06602-8.59088 4.20104-12.92877 6.16898-3.12714 1.41851-6.02026 3.37192-8.81769 5.26175-6.37683 4.30548-12.3985 8.37302-21.09601 6.52315l-5.5426-1.17966 3.1217 4.73412c.54706.83004 1.08868 1.6737 1.62982 2.51736 3.50732 5.46336 7.13391 11.11378 12.53778 13.4032 12.15173 5.15005 24.65228 2.71442 36.14807-7.0426 3.49463-2.96689 7.29492-5.66042 10.55188-7.90443 1.59308-1.09794 3.18433-2.1986 4.77606-3.29926 7.96533-5.50967 16.20105-11.20641 24.52301-16.40278 2.26892-1.41669 5.72632-2.09144 7.70947-1.50842 8.81726 2.60363 18.59802 21.85886 15.85547 31.21722-.71576 2.44289-1.50415 4.92755-2.26801 7.33139-1.68652 5.31169-3.43115 10.80411-4.56604 16.38824-1.11768 5.50151-1.97412 11.12469-2.80334 16.56352-1.08136 7.09618-2.19995 14.43484-3.89832 21.45655-1.39075 5.74579-3.11353 9.07501-7.80023 9.07501-.01086 0-.02271 0-.03357 0-5.57031-.01997-8.74469-2.87607-10.97009-9.90141-.08252-.25974-.20685-.65295-.20776-.79553.00366-2.68808-.00543-5.37708-.01538-8.06607-.02722-7.94438-.05536-16.15849.26129-24.19913.08252-2.1096 1.31-4.89848 2.4776-5.62954 7.52716-4.71868 5.26276-11.23275 3.76495-15.54368-.31573-.90813-.6142-1.76633-.82104-2.5555-.74213-2.8343-4.76654-3.28564-9.86237-3.85686-.90997-.10172-1.78357-.19888-2.54205-.30695-10.81854-1.54292-19.05334 2.80433-25.17529 13.28242-2.01538 3.4491-4.5061 6.58218-7.14294 9.8987-1.32501 1.66734-2.69489 3.39008-3.98724 5.14459-2.99335 4.06392-5.99036 8.12602-8.98688 12.18721-9.5163 12.89826-6.35052 8.56554-15.91809 21.76986-1.87567 2.5891-3.75629 5.17548-5.63696 7.76094-9.19012 12.63945-13.11975 18.269-21.91748 31.51781-10.22211 15.39384-19.83044 28.8488-33.92908 37.60506-13.41907 8.33307-29.06042 13.74466-46.48944 16.08582-3.10223.41592-6.11011 1.21146-9.0191 1.98065-1.28827.34055-2.56836.67929-3.84161.97989l-3.54132.8364 2.24896 2.86334c.74121.94449 1.4375 2.05511 2.11108 3.13037 1.67609 2.67447 3.25922 5.2009 5.82935 5.46878 1.40027.14532 2.80878.30244 4.22217.45863 5.66785.62933 11.45459 1.27139 17.17957 1.27139 3.47375 0 6.92523-.23703 10.31146-.85638 11.00226-2.01152 21.6698-7.23061 30.65442-12.07005 6.77191-3.6489 13.45764-9.08411 19.33459-15.71713 7.30719-8.24861 14.19482-17.06572 20.85602-25.59404 2.64325-3.38371 5.28595-6.76744 7.95953-10.12392 2.18774-2.7462 4.39728-5.47697 6.60681-8.20683 5.33899-6.59853 5.28589-5.98099 10.40942-12.95094 8.06018-10.96394 3.13263-4.52252 10.94513-15.38022 7.45868-10.36548 15.17139-21.08421 22.85144-31.5514 2.04761-2.79071 4.55286-5.23814 7.20557-7.83087.41962-.40956.84418-.82458 1.27014-1.24414l-.41144 3.4827c-.60284 5.10464-1.20569 10.20928-1.80353 15.31483-1.67975 14.34402 2.64636 33.69189 20.367 41.01147 2.48944 1.02892 4.80737 2.56367 7.26141 4.18834 1.15125.76192 2.34149 1.55019 3.55444 2.28395 3.9682 2.40021 9.09851 2.74167 13.07391.87091 2.96301-1.39671 4.9126-3.88138 5.34717-6.81648.21954-1.48117.44995-2.96234.68042-4.44441.93445-6.00189 1.90063-12.209 2.112-18.40976.59515-17.41989 5.94409-34.2613 16.35529-51.48411l.16876-.2788c4.65765-7.701 10.45386-17.28639 5.83887-27.15694-5.20655-11.13742-11.75757-21.31311-18.94452-29.42822z"/></g></svg>