<svg enable-background="new 0 0 407.44 136.3" viewBox="0 0 407.44 136.3" xmlns="http://www.w3.org/2000/svg"><g fill="#fff"><path d="m82.26 31.32c-6.95-1.42-13.84-1.11-20.78-.15-1.58.33-3.16.65-4.73.98-.15.22-.3.43-.45.65-.48.01-.96.02-1.45.02-.71.27-1.42.54-2.13.81-2.17.91-4.35 1.82-6.52 2.73-.55.04-1.1.07-1.64.11-.3-.23-.6-.45-.91-.68-.89-3.28-3.3-3.48-6.06-2.98-.08.46-.16.92-.24 1.38-.41 1.06-.82 2.12-1.24 3.19-.37 2.49-.75 4.98-1.12 7.47-.09 4.7-.35 9.41-.21 14.11.08 2.54 1.38 4.69 4.33 6.12 1.05-1.53 2.06-3.01 3.07-4.49.23-1.76.47-3.52.7-5.28.18-.4.36-.81.54-1.21.05-.34.11-.68.16-1.03.21-.37.42-.74.64-1.1.11-.4.22-.79.33-1.19-.03-1.41-.05-2.82-.08-4.23.2-.08.4-.18.6-.28-.05-.25-.01-.49.12-.71.22-.72.45-1.45.67-2.17 1-.59 2-1.19 3-1.78.33-.15.65-.29.98-.44.81-.25 1.62-.5 2.43-.74l.17.12.17-.11c.69.12 1.38.23 2.06.35.72 2.99 1.44 5.98 2.29 9.51-.28.3-1.02 1.1-1.75 1.89l-.19-.04-.15.13c-2.14.57-2.19 2.21-1.75 3.85.35 1.29 1.1 2.47 1.67 3.7 1 .07 2.01.14 3.01.21 1.78-.55 3.55-1.11 5.33-1.66 2.5-.56 4.99-1.12 7.49-1.68 1.67-.49 3.34-.98 5.02-1.46 1.04-.28 2.09-.56 3.13-.84.47-.22.95-.44 1.42-.66 1.89-2.14 3.78-4.29 5.67-6.43.79-1.54 1.79-3 2.35-4.62 1.85-5.34.24-10.1-5.95-11.37zm-18.74 18.14c-2.18-2.52-1.22-4.32.37-6.06.6-.16 1.2-.32 1.81-.48.74.81 1.49 1.61 2.53 2.75-1.82 1.47-3.2 2.58-4.71 3.79zm19.52-8.53c-.16-.02-.31-.08-.44-.19-.25.4-.5.8-.75 1.2.05.23-.02.41-.22.54-.16.84-.32 1.67-.48 2.51l.14.15-.19.05c-.04.17-.14.28-.3.35.06.2.08.41.04.62-.17-.04-.32-.13-.44-.26-1.76.16-3.53.33-5.29.49-.53.39-1.06.78-1.59 1.17-.62.03-1.25.06-1.87.09-.11-.18-.18-.37-.23-.57-.41-.17-.82-.33-1.35-.55.26-.63.44-1.07.61-1.51 1.94-.85 3.87-1.71 5.81-2.56-.06-.13-.13-.26-.15-.4-.01-.07.13-.16.2-.24-.28 0-.55-.01-.83-.01.18-.25.35-.49.53-.74.31-.76.62-1.53.93-2.29l.09-.13c.32-.3.63-.6.95-.9 2.77-1.12 4.02.16 4.41 2.79.16-.08.32-.12.5-.13-.09.16-.11.34-.08.52z"/><path d="m16.62 87.58c.2-.27.4-.54.6-.8-.05-.76-.11-1.51-.16-2.27-1.45-3.8-2.9-3.98-5.69-.69-1.96 3.96-4.05 7.86-5.77 11.92-.42.98.4 2.48.64 3.74 2.75-1.22 6.33-.56 8.27-3.63.7-2.76 1.4-5.51 2.11-8.27z"/><path d="m23.35 67.38c-.68-1.69-.88-3.99-.31-5.68 4.32-12.76 3.72-25.96 3.87-39.1.01-.82-.82-1.65-1.26-2.47l-.09-.06-.35.01-.31-.16c-.82.54-1.65 1.08-2.47 1.62-.15 1.35-.33 2.69-.44 4.04-.26 3.2-.49 6.4-.73 9.61-.12.72-.23 1.44-.35 2.17-.15.52-.31 1.04-.46 1.56-.64 2.37-1.28 4.73-1.92 7.1-1.31 2.43-2.62 4.87-4.06 7.55-2.24-1.74-4.06-3.16-6.05-4.71-.99.65-1.79 1.17-2.58 1.69-1.82 1.54-1.19 2.92.26 4.26.68.24 1.36.49 2.05.73.1.4.21.8.31 1.2.22.27.45.55.67.82 1.97 2.04 1.53 3.71-.77 5.11-.17.16-.37.23-.6.21-.83 0-1.67.01-2.5.01-.72-.2-1.44-.4-2.17-.61-.7.02-1.41.03-2.11.05-.26.18-.51.35-.77.53-.21 1.69-.69 3.46 1.31 4.51l.08.02c1.89 1.59 3.78 3.19 5.67 4.78l.07.05c.59.35 1.18.7 1.77 1.05l.03.25c1.5 0 3 .01 4.5.01l-.05-.26c1.94-.41 3.88-.82 5.83-1.23.24.49.48.98.71 1.47.86 1.92 1.72 3.84 2.59 5.75.51 2.77 1.01 5.55 1.52 8.32 0 .5-.01 1-.01 1.49-.08 1.2-.15 2.39-.23 3.59l.01.09c-.21.77-.42 1.53-.63 2.3-.95 2.83-1.91 5.66-2.86 8.49-.04.15-.08.31-.1.46-1.49.37-2.97.74-4.46 1.12-.71 1.9-1.42 3.8-2.13 5.7-.03.25-.07.51-.1.76.54 1.69 1.07 3.38 1.61 5.07.43.02.86.04 1.28.06 1.75-.93 3.49-1.86 5.24-2.8 4.2-1.64 6.29-5.03 7.53-9.12.18-1.36.37-2.71.55-4.07.12-.9.24-1.81.36-2.71-.24-5.75-.47-11.5-.71-17.25-2.11-4.43-4.4-8.82-6.24-13.38z"/><path d="m79.74 67.16c-1.29-.45-2.59-.89-3.88-1.34h-.01c-.25-.01-.5-.02-.75-.02-.49-.04-.97-.08-1.46-.12-1.03-.04-2.05-.07-3.08-.11-.47 0-.95.01-1.42.01-.76.04-1.52.08-2.29.13-2.33.49-4.66.98-6.99 1.47-1.02.24-2.03.49-3.05.73-.73.27-1.46.54-2.19.81-.38.01-.77.01-1.15.02-.8-1.48-1.61-2.96-2.59-4.76-.81.76-1.4 1.32-1.99 1.87-3.67 3.8-7.62 7.44-7.87 13.1.31.34.62.68.93 1.03 2.52-1.29 5.05-2.57 7.57-3.86.96-.47 1.93-.95 2.89-1.42.15-.18.3-.35.46-.52.66-.06 1.32-.12 1.97-.18.23-.24.45-.48.68-.73.81-.22 1.61-.44 2.42-.67.74-.14 1.47-.29 2.21-.43.55-.15 1.1-.29 1.66-.44.03-.16.08-.31.15-.45 1.05.11 2.11.21 3.16.32-.24 1.37-.26 2.91-2.23 2.99-.16.14-.34.23-.55.28-.27.4-.54.81-.81 1.21-.22-.02-.44-.07-.66-.13-1.01.12-2.02.24-3.03.36-1.36.47-2.72.95-4.08 1.42-.42.02-.84.03-1.27.05-.47.18-.94.36-1.4.54-.5.31-1.01.63-1.51.94-.06.25-.13.49-.19.74-1.97 2.29-3.93 4.58-5.9 6.86-.01.7-.01 1.41-.02 2.11l-.3.01-.29-.04c-.09.31-.18.62-.27.93-.1.28-.19.57-.29.85-.08.73-.17 1.45-.25 2.18-.17.73-.34 1.46-.51 2.18.62.78 1.24 1.55 1.92 2.39 1.81-.96 3.2-1.69 4.59-2.43 1.01-.03 2.01-.06 3.02-.08.49.28.99.56 1.48.84.02.49.05.99.07 1.48-.52 1.02-1.03 2.04-1.55 3.05-.11.22-.21.43-.32.65.1.88.19 1.77.29 2.65.54-.06 1.07-.11 1.61-.17 1.48-.08 2.96-.15 4.44-.23.15.11.26.25.33.42.25.02.45.13.6.33.17.17.34.35.51.52.14.04.25.12.32.25.59.09 1.19.18 1.78.27.3.45.6.91.9 1.36.52.14 1.03.27 1.55.41.18.09.36.18.54.28 3.65 1.01 7.28 2.13 10.98 2.94.88.19 2-.68 3.01-1.06l.16.02.23.02.15-.17c1.74-3.3 3.47-6.6 5.21-9.9.29-.8.58-1.6.87-2.4.18-.52.36-1.04.54-1.57-.02-.25.06-.46.24-.63.14-.37.28-.73.42-1.1-.05-.17-.01-.32.12-.44.16-1.48.27-2.97.47-4.45.91-6.48.6-12.89-.9-19.43-1.87-.58-3.63-1.16-5.4-1.74zm.94 21.53c-.42 1.41-.74 2.84-1.11 4.27-.24.09-.33.26-.26.51-.19.02-.38.05-.57.09.05.25.1.5.15.75-.39.36-.78.71-1.16 1.07-.64 1.61-1.28 3.22-1.92 4.84-.44.54-.89 1.08-1.33 1.63l-.08.08c-.21.22-.42.44-.63.67l-.35-.1c-.64.26-1.28.52-1.91.77-.1-.21-.16-.43-.2-.65-.48-.26-.97-.52-1.45-.79-.18-.99-.37-1.98-.55-2.98-1.11-.84-2.22-1.69-3.24-2.46-1.23.36-2.13.63-3.03.9-.7.01-1.41.02-2.11.03l-.06-.03c-.52-.49-1.05-.99-1.57-1.48.83-.91 1.67-1.81 2.5-2.72.94-.3 1.88-.61 2.82-.91 3.21-.37 5.06-2.64 6.89-4.94l.2.07c.1-.42.2-.85.3-1.27.55-4.75-3.73-4.53-6.87-6.08 1.82-1.53 3.28-2.75 4.57-3.83.41-1.54.76-2.83 1.11-4.12l.06.03c3.07-.78 4.9 1.84 7.37 2.69 4.36 4.02 3.93 8.89 2.43 13.96z"/><path d="m407.34 100.32c.03-.52.07-1.05.1-1.57-.03-.96-.06-1.93-.09-2.89-.25-.38-.5-.76-.76-1.14-.23-.62-.46-1.24-.68-1.86l-.07-.12c-.27-.43-.53-.87-.8-1.3l-.08-.09c-.16-.23-.31-.46-.47-.7-.75-1.4-1.5-2.79-2.26-4.19-2.06-.02-4.12-.03-6.19-.05-4.06.38-8.11.82-12.18 1.09-1.42.09-2.78-.35-2.57-2.3.24-.34.48-.69.72-1.03l.2-.22c.78-.57 1.49-1.31 2.36-1.66 1.36-.53 2.82-.79 4.24-1.17-.09-.13-.18-.25-.28-.38.1.12.19.25.28.38 1.17-.06 2.34-.12 3.51-.17.73-.07 1.46-.14 2.19-.21.36-.22.71-.44 1.07-.66l.11-.2.18.1c.46-.22.92-.44 1.38-.66.13-.22.26-.44.39-.66 1.07-2.32 2.13-4.64 3.38-7.36-1.11-2.32-2.25-4.68-3.38-7.03-.46-.56-.93-1.13-1.39-1.69l.02-.1c-.2-.56-.39-1.12-.59-1.69-3.37-1.07-6.74-2.15-10.11-3.22l-.02-.01c-.31-1.23-.62-2.47-1.07-4.25 1.99-.42 3.58-.75 5.17-1.08 1.87-.26 3.73-.53 5.6-.79 2.98-1.97 3.04-5.4 4.12-8.31.09-.26.18-.51.28-.77-.02-.24.04-.46.19-.65.17-.35.34-.7.51-1.06-.51-3.11-1.03-6.22-1.54-9.34-.39-.27-.78-.53-1.17-.8-.09-.26-.18-.51-.27-.77-.18-.71-.36-1.41-.54-2.12-5.22-.09-10.44-.19-15.66-.28-2.23.07-4.46.12-6.69.23-4.31.2-8.61.44-12.92.66-.99.02-1.97.03-2.96.05-1.04.35-2.07.69-3.11 1.04-.23.06-.47.13-.7.19-.63 1.64-1.25 3.28-1.88 4.92-.57.94-1.14 1.88-1.7 2.82.07.69.13 1.38.2 2.07l-.08.01c.16.31.32.62.48.93.29.44.59.89.88 1.33 2.18 1.09 4.36 2.18 6.54 3.28l.04-.02c.31.24.62.47.93.71 3.57 1.34 4.38 4.19 4.16 7.6.12.15.14.3.05.47.42 5.14.09 5.7-4.38 7.54-1.23.51-2.43 1.08-3.65 1.62l-.02.01c-1.12.68-2.24 1.36-3.36 2.05-1.51.56-2.97 1.15-2.39 3.24.15.22.31.44.46.67.23.3.46.6.68.89l-.06-.05c.24.73.47 1.47.71 2.2.17.19.25.41.24.66.44.31.88.61 1.32.92l.07-.01c.26.46.52.93.78 1.39.25.1.51.19.76.29.26-.02.52-.05.79-.07.43.43.86.85 1.29 1.28.26.22.51.45.77.67.83 1.26 1.66 2.52 2.49 3.78v.04c.82 2.56 1.34 5.09-.91 7.27l-.23.16c-1.19.32-2.39.65-3.58.97-.38-.01-.77-.02-1.15-.03-.54.05-1.09.1-1.63.14-.53.19-1.07.39-1.6.58-3 .39-6.01.78-9.01 1.17-1.23.09-2.46.19-3.68.28-2.27.55-4.54 1.1-7.27 1.77v12.39c2.22.39 4.7.83 7.17 1.26.53.06 1.05.13 1.58.19.13-.14.28-.24.46-.3.08.16.17.31.28.46 7.15.07 14.29.11 21.44.23 2.33.04 4.65.31 6.98.47 6.54.28 13.08.55 19.61.83 1.46-.07 2.92-.12 4.38-.21 3.03-.18 6.07-.38 9.1-.57.28.08.55.15.83.23.26-.11.51-.21.77-.32.23-.17.45-.34.68-.52.27-.31.54-.62.82-.93.21-.29.43-.57.64-.86-.03-.25.03-.49.16-.7.1-.32.19-.64.29-.95.08-.89.16-1.79.24-2.68-.05-.2-.12-.39-.13-.59-.02-.01.12-.09.19-.17z"/><path d="m303.31 59.79c-.33-2.36-1.27-4.48-1.9-6.72.05-.25.11-.5.16-.75-.28-.49-.55-.99-.83-1.48-1-1.99-2-3.97-3-5.96-.17-.1-.35-.14-.55-.12-.08-.5-.15-1-.23-1.5l.08-.26c-.49-.63-.99-1.27-1.48-1.9-2.95-3.36-5.46-7.27-10.22-8.43l-.13-.07c-.14-.38-.27-.77-.41-1.15-1.37-.07-2.74-.15-4.12-.22-.1-.17-.2-.35-.28-.53-.21.04-.4-.01-.57-.15-.73-.24-1.46-.48-2.19-.72-4.01.01-8.02.02-12.03.03-1.75.24-3.5.48-5.25.72-.36.21-.71.41-1.07.62-3.96.77-8 1.36-10.92 4.59-4.7 2.14-7.01 6.22-8.92 10.75.67 1.35 1.31 2.66 1.96 3.97.03.43.07.85.1 1.28.35.37.69.75 1.04 1.12l-.07-.04c.31.27.61.54.92.81.65.07 1.3.14 1.94.21 2.23-.47 3.77.28 4.6 2.85-.52 1.05-1.15 2.32-1.78 3.6l.06.1c-.18.29-.36.58-.54.87-1.53 1.48-3.07 2.95-4.6 4.43l-.07.08c-.21.19-.42.37-.63.56-.41.65-.82 1.3-1.24 1.95-.62.17-1.23.35-1.85.52-.5.38-1 .75-1.5 1.13-.24.14-.48.28-.72.42-.78.3-1.55.61-2.33.91-.44.21-.89.42-1.33.62-1.28.7-2.57 1.4-3.85 2.1-2.77 2.16-5.54 4.31-8.31 6.47-1.29 1.3-2.64 2.54-3.8 3.94-.19.23.47 1.17.74 1.79 4.81.69 9.63 1.38 14.44 2.07.28.03.56.06.83.08.7.09 1.39.18 2.09.27.46-.04.92-.07 1.38-.11-.02.15 0 .3.05.44 1.03.28 2.07.57 3.1.85.39.01.78.02 1.17.04 2.48 2.11 5.01 4.17 7.42 6.36 1.44 1.31 2.7 2.82 4.03 4.24.73 1.27 1.46 2.54 2.19 3.8.5.25.99.5 1.49.75.51.5 1.02.99 1.53 1.49 1.71.92 3.41 1.84 5.12 2.75.26.14.51.28.77.41.6.33 1.21.65 1.81.98.98.53 1.96 1.06 3.01 1.62 6.16-.88 12.34-1.66 17.33-5.98.22-.23.45-.46.67-.68.26-.26.52-.53.79-.79 1.09-1.99 2.19-3.97 3.28-5.96.85-1.46 1.7-2.93 2.55-4.39.71-1.16 1.56-2.26 2.11-3.49 1.85-4.19 3.6-8.43 5.39-12.65-.06-.21-.01-.39.16-.54.25-.73.5-1.45.75-2.18l.01-.06c.16-1.57.31-3.15.46-4.72.26-.33.52-.66.77-1 .12-.86.24-1.71.36-2.57-.05-.74-.1-1.49-.16-2.23.08-.39.16-.78.24-1.18-.01-1.34-.01-2.7-.02-4.06zm-25.89 13.95s-1.06 2.54-1.59 3.81c-.68 1.08-1.36 2.16-2.05 3.25.28.04-2.54 1.84-4.35 3.15-2.05-1.25-4.15-2.52-6.26-3.8-.52-.5-1.04-1-1.55-1.5-.13-.22-.25-.43-.38-.65.05-.29.1-.59.14-.88 1.32-3.68 2.64-7.37 3.96-11.05.13-.47.25-.94.38-1.42 1.22-2.53 2.43-5.06 3.65-7.6 2.29-4.18 6.28-3.19 10.26-3.04.89 1.19 1.77 2.38 2.66 3.57v1.47c-1.58 4.77-4.75 14.31-4.75 14.31z"/><path d="m189.28 70.68c2.97-2.19 5.94-4.39 9.15-6.76-.48-1.74-.88-3.2-1.29-4.69-1.73-.24-3.07-.44-4.4-.62-1.36-.19-2.72-.36-4.08-.54l-.03.06c-.3-.47-.61-.93-.91-1.4l-.01-.04c-1.32-3.97-5.15-4.6-8.25-6.21-.03-1.07-2.84.22-1.61-1.91l.05-.03c.25-.21.49-.42.74-.63l.04-.07c1.86-1.75 3.61-3.65 5.62-5.2 2.5-1.92 5.22-3.56 7.85-5.32.05-.12.12-.24.21-.34.7-.37 1.4-.75 2.09-1.12 1-.75 2-1.49 2.99-2.24-.79-1.07-1.58-2.14-2.03-2.74-3.26-.25-5.91-.45-9.24-.7 1.59-2.09 2.53-3.33 3.48-4.57 2.24-.89 2.62-2.7 2.39-4.82.03-.47.05-.94.08-1.41-.41-1.38-.91-2.73-1.22-4.13-.28-1.23-.36-2.51-.53-3.77.05-.89.1-1.79.15-2.68-.56-2.93-1.12-5.87-1.68-8.8-3.64 0-7.29 0-11.52 0-.68 5.28-1.3 10.12-1.92 14.97-.1.43-.19.86-.29 1.29-.33.27-.67.55-1 .82-.49.12-.97.23-1.46.35-1.09.16-2.19.32-3.28.48-.32.04-.64.07-.96.11-.12.27-.23.54-.35.8-.23.09-.46.17-.69.26-.23.07-.46.13-.69.2-.71.54-1.43 1.08-2.14 1.63-.31 4.78 4.18 5.19 6.72 7.28.43 2.49.84 4.86 1.24 7.24.79.73 1.59 1.47 2.09 1.92 2.38.22 4.32.4 6.26.58.13.36.27.72.4 1.08-1.1.96-2.21 1.93-3.31 2.89l-.01-.04c-2.77 2.49-5.53 4.98-8.3 7.46-.22.48-.44.96-.67 1.44l-.1.1c-1.7 1.33-3.4 2.65-5.1 3.98.08.38.15.76.23 1.14h10.93l.01-.02c.81.25 1.61.49 2.42.74 2.01.24 4.22-.06 5.44 2.16.19.34.38.67.57 1.01-.02.46-.03.93-.05 1.39-.3.56-.6 1.13-.91 1.69-.74.22-1.49.44-2.23.65-1 .25-1.99.49-2.99.74l-.06.04c-.28.41-.56.82-.85 1.23l-.03.07c-.22-.1-.46-.18-.7-.23-.23.14-.47.28-.7.43-.52.41-1.04.82-1.56 1.24-.71.63-1.43 1.27-2.14 1.9-.47.95-.95 1.9-1.42 2.85v1.27c.67.12 1.35.24 2.02.36.09.16.17.33.24.49 1.4.17 2.8.33 4.2.5.45.4.9.8 1.34 1.21.01.69.01 1.39.02 2.08-.27.8-.53 1.6-.9 2.71-.38.16-1.04.43-1.69.7-1.78.37-3.57.75-5.35 1.12v.02c-4.35 2.47-7.16 6.37-9.73 10.49-.72 1.25-1.44 2.5-2.15 3.74-.08.42-.17.83-.25 1.25-.55 1.3-1.11 2.6-1.66 3.9-.35.56-.7 1.11-1.04 1.67-.22.52-.44 1.03-.67 1.55-.26.85-.52 1.7-.79 2.55-.09.62-.18 1.23-.27 1.85-.42 2.11-.85 4.22-1.27 6.33.09.17.06.31-.09.43.57 2.48 1.14 4.95 1.71 7.43 1.02-.11 2.05-.22 3.07-.33.6-.71 1.2-1.42 1.8-2.13 3.41-1.86 2.15-5.35 2.85-8.15.12-.95.24-1.89.37-2.84l-.32.04c.33-.76.65-1.52.98-2.28.03-.28.06-.56.08-.84.17-.77.34-1.53.51-2.3.14-.45.28-.91.42-1.36.15-.29.29-.59.43-.88-.29-3.79 1.06-6.91 3.83-9.46.91-.4 1.83-.79 2.74-1.19 1.08-.88 2.16-1.76 3.24-2.65 2.63-.8 5.17-2.44 8.04-.81 1.63 1.5.54 2.86-.22 4.24-.36-.05-.72-.09-1.08-.14l-.05.31c-.97.28-1.93.56-2.9.83-1.04.03-2.08.06-3.12.09h-.01c-.71-.01-1.42-.02-2.13-.03-.14.24-.28.48-.42.71-.05.26-.1.51-.15.77-.08.24-.15.47-.23.71.5 1.49 1.01 2.98 1.51 4.47 1.01.01 2.02.03 3.03.04 1.49.25 2.98.5 4.47.76l.16.13.19-.09c.37.21.75.42 1.12.64-.31 1.49-.63 2.98-.77 3.68-4.43-.35-8.47-.67-12.49-.99-.63 3.27.87 5 2.86 6.49.74.16 1.49.31 2.23.47.22-.15.45-.29.67-.44.45.06.91.13 1.36.19.61-.03 1.22-.07 1.82-.1.44-.34.88-.67 1.33-1.01.22.49.44.98.67 1.47-.61 2.51-1.21 5.03-1.84 7.54-.82 3.25-2.55 5.64-6.18 6.19-.54 1.47-1.04 2.85-1.55 4.23.41.78.83 1.56 1.24 2.34 1.02 1.09 2.03 2.18 3.05 3.27.31.4.62.79.93 1.19 1.44-1.09 3.31-1.9 4.25-3.33 2.83-4.31 5.3-8.85 7.92-13.3.15-.4.29-.8.44-1.21.32-1.11.64-2.22.97-3.33.14-.62.29-1.24.43-1.85.2-.38.41-.76.61-1.14.22-1.04.44-2.08.66-3.12-.1-.15-.06-.26.1-.34.15-.83.31-1.67.46-2.5-.08-.17-.06-.33.05-.47-.06-.3-.13-.6-.19-.9.14-.45.27-.91.41-1.36-.12-3.05-.25-6.09-.37-9.14-.58-4.41 0-9.18-3.81-12.61-.34-.28-.68-.56-1.02-.85.09-1.02.18-2.05.27-3.08.13-.15.17-.32.11-.51.93-1.83 1.87-3.66 2.8-5.49.07-.37.17-.73.26-1.09zm-.18 18.38c-.03 0-.06 0-.1 0z"/><path d="m157.31 73.48c.14-.2.28-.39.42-.59.8-1.26 1.6-2.51 2.39-3.77l.06-.13c1.58-1.05 1.32-2.34.58-3.78-.65-1.27-1.18-2.6-1.76-3.91-.11-.28-.22-.56-.33-.84-.06-.28-.13-.56-.19-.84l-.35.03-.35-.02c.09-.23.22-.44.4-.61-1.64-1.22-3.28-2.44-4.92-3.66.3-1.45.6-2.89.91-4.34l.03.06c2.1-1.1 4.21-2.19 6.31-3.29.48-.11.96-.23 1.45-.34.08-.32.15-.64.23-.97.26-.31.52-.62.78-.94.05-.51.09-1.02.14-1.52-.11-.23-.21-.46-.32-.68-.61-.89-1.22-1.77-1.92-2.8-1.59-.11-3.16-.22-4.74-.33-2.39.07-4.77.15-7.16.22-1.17.02-2.33.03-3.5.05l-.08.01c-.38-.15-.77-.31-1.15-.46-.02-.64-.04-1.27-.06-1.91.22-.52.44-1.04.66-1.56v-.01c1.59-1.47 3.18-2.93 4.78-4.4l.18-.24c1.26-.76 2.43-1.94 3.78-2.19 3.48-.66 5.09-2.74 5.61-6.01 0-1.22 0-2.43 0-3.46-1.67-1.07-3.38-1.65-4.29-2.84-2.81-3.72-6.55-4.55-10.84-4.23-2.27 1.5-4.54 2.99-6.81 4.49h-.04c-.72.52-1.44 1.04-2.15 1.55-2.46 1.83-5.45 3.24-7.27 5.57-3.09 3.97-5.45 8.51-8.11 12.81-.85.91-1.71 1.82-2.56 2.72-.7 1.51-1.41 3.02-2.11 4.52-.13.49-.27.98-.4 1.47.09.24.17.48.26.72-.2.11-.41.21-.61.3.06.18.02.34-.12.46-.6 2.48-1.21 4.96-1.81 7.44-.02.51-.05 1.02-.07 1.53.14 1.77.29 3.53.43 5.3.23 6.25.46 12.5.69 18.75.48 2.1.96 4.19 1.44 6.29.43.2.87.4 1.3.6.01.2-.02.39-.08.58.97-.12 1.94-.23 2.91-.35 1.18-.74 2.7-1.24 3.48-2.28 1.44-1.95 2.45-4.22 3.64-6.36.18-.4.36-.8.55-1.21.36-1.61.71-3.21 1.07-4.82.22-.73.43-1.45.65-2.18.08-.29.15-.57.23-.86.14-.56.27-1.12.41-1.68.14-1.18.27-2.36.41-3.55.12-.34.23-.67.35-1.01.05-.4.1-.81.15-1.21.15-1.96.29-3.92.44-5.88.05-1.93.1-3.87.15-5.8-.19-2.86-.38-5.71-.58-8.57 0-2.44 0-4.88 0-7.51 1.3-.74 2.55-1.45 3.8-2.16.99-.51 1.98-1.02 2.98-1.52 1.15.05 2.3.1 3.45.15h.06c.16.43.33.85.49 1.28-1.81 3-3.61 6.01-5.42 9.01.76 2.78 1.52 5.57 2.42 8.85 2.75.13 5.82.28 9.58.46-1.81 2.11-3.21 3.65-4.5 5.27-1.29 1.61-2.47 3.3-3.69 4.96-.17.18-.34.37-.5.55-.85.82-1.69 1.64-2.54 2.46-.6 1.21-1.2 2.42-1.8 3.63-.19.54-.39 1.09-.58 1.63-.63 2.18-1.26 4.36-1.77 6.14 1.59 2.1 2.85 1.94 4.15.73 1.12-1.57 2.24-3.14 3.36-4.71.22-.13.32-.32.32-.57-.06-.32-.11-.64-.17-.97.06.32.11.64.17.97.76-.77 1.51-1.54 2.27-2.31 1.22-1.03 2.44-2.05 3.67-3.08.26 0 .53.01.79.01.44-.09.89-.17 1.33-.26.62.08 1.24.17 1.86.25-.1.98-.19 1.97-.29 2.95l-.37-.07c-.34.31-.67.62-1.01.94h-.01c-.96.52-1.92 1.03-2.87 1.55-1.63 1.94-3.26 3.88-5.3 6.31 2.94 1.3 5.18 2.29 7.41 3.27 1.02-.41 2.03-.83 3.05-1.24.7-.1 1.39-.19 2.09-.29 1.63-1.88 3.31-3.8 4.98-5.72z"/><path d="m172.64 100.34c-.01-.02-.01-.04-.02-.06-.01 0-.02 0-.04 0z"/><path d="m76.53 42.43c-.02.01-.03.01-.05.02.02.03.03.07.05.1z"/></g></svg>