<?xml version="1.0" encoding="utf-8"?>
<!-- Generator: Adobe Illustrator 26.3.1, SVG Export Plug-In . SVG Version: 6.00 Build 0)  -->
<svg version="1.1" id="Layer_1" xmlns="http://www.w3.org/2000/svg" xmlns:xlink="http://www.w3.org/1999/xlink" x="0px" y="0px"
	 viewBox="0 0 407.44 136.3" style="enable-background:new 0 0 407.44 136.3;" xml:space="preserve">
<style type="text/css">
	.st0{fill:#FFFFFF;}
</style>
<g>
	<path class="st0" d="M82.26,31.32c-6.95-1.42-13.84-1.11-20.78-0.15c-1.58,0.33-3.16,0.65-4.73,0.98c-0.15,0.22-0.3,0.43-0.45,0.65
		c-0.48,0.01-0.96,0.02-1.45,0.02c-0.71,0.27-1.42,0.54-2.13,0.81c-2.17,0.91-4.35,1.82-6.52,2.73c-0.55,0.04-1.1,0.07-1.64,0.11
		c-0.3-0.23-0.6-0.45-0.91-0.68c-0.89-3.28-3.3-3.48-6.06-2.98c-0.08,0.46-0.16,0.92-0.24,1.38c-0.41,1.06-0.82,2.12-1.24,3.19
		c-0.37,2.49-0.75,4.98-1.12,7.47c-0.09,4.7-0.35,9.41-0.21,14.11c0.08,2.54,1.38,4.69,4.33,6.12c1.05-1.53,2.06-3.01,3.07-4.49
		c0.23-1.76,0.47-3.52,0.7-5.28c0.18-0.4,0.36-0.81,0.54-1.21c0.05-0.34,0.11-0.68,0.16-1.03c0.21-0.37,0.42-0.74,0.64-1.1
		c0.11-0.4,0.22-0.79,0.33-1.19c-0.03-1.41-0.05-2.82-0.08-4.23c0.2-0.08,0.4-0.18,0.6-0.28c-0.05-0.25-0.01-0.49,0.12-0.71
		c0.22-0.72,0.45-1.45,0.67-2.17c1-0.59,2-1.19,3-1.78c0.33-0.15,0.65-0.29,0.98-0.44c0.81-0.25,1.62-0.5,2.43-0.74l0.17,0.12
		l0.17-0.11c0.69,0.12,1.38,0.23,2.06,0.35c0.72,2.99,1.44,5.98,2.29,9.51c-0.28,0.3-1.02,1.1-1.75,1.89l-0.19-0.04l-0.15,0.13
		c-2.14,0.57-2.19,2.21-1.75,3.85c0.35,1.29,1.1,2.47,1.67,3.7c1,0.07,2.01,0.14,3.01,0.21c1.78-0.55,3.55-1.11,5.33-1.66
		c2.5-0.56,4.99-1.12,7.49-1.68c1.67-0.49,3.34-0.98,5.02-1.46c1.04-0.28,2.09-0.56,3.13-0.84c0.47-0.22,0.95-0.44,1.42-0.66
		c1.89-2.14,3.78-4.29,5.67-6.43c0.79-1.54,1.79-3,2.35-4.62C90.06,37.35,88.45,32.59,82.26,31.32z M63.52,49.46
		c-2.18-2.52-1.22-4.32,0.37-6.06c0.6-0.16,1.2-0.32,1.81-0.48c0.74,0.81,1.49,1.61,2.53,2.75C66.41,47.14,65.03,48.25,63.52,49.46z
		 M83.04,40.93c-0.16-0.02-0.31-0.08-0.44-0.19c-0.25,0.4-0.5,0.8-0.75,1.2c0.05,0.23-0.02,0.41-0.22,0.54
		c-0.16,0.84-0.32,1.67-0.48,2.51l0.14,0.15l-0.19,0.05c-0.04,0.17-0.14,0.28-0.3,0.35c0.06,0.2,0.08,0.41,0.04,0.62
		c-0.17-0.04-0.32-0.13-0.44-0.26c-1.76,0.16-3.53,0.33-5.29,0.49c-0.53,0.39-1.06,0.78-1.59,1.17c-0.62,0.03-1.25,0.06-1.87,0.09
		c-0.11-0.18-0.18-0.37-0.23-0.57c-0.41-0.17-0.82-0.33-1.35-0.55c0.26-0.63,0.44-1.07,0.61-1.51c1.94-0.85,3.87-1.71,5.81-2.56
		c-0.06-0.13-0.13-0.26-0.15-0.4c-0.01-0.07,0.13-0.16,0.2-0.24c-0.28,0-0.55-0.01-0.83-0.01c0.18-0.25,0.35-0.49,0.53-0.74
		c0.31-0.76,0.62-1.53,0.93-2.29l0.09-0.13c0.32-0.3,0.63-0.6,0.95-0.9c2.77-1.12,4.02,0.16,4.41,2.79c0.16-0.08,0.32-0.12,0.5-0.13
		C83.03,40.57,83.01,40.75,83.04,40.93z"/>
	<path class="st0" d="M16.62,87.58c0.2-0.27,0.4-0.54,0.6-0.8c-0.05-0.76-0.11-1.51-0.16-2.27c-1.45-3.8-2.9-3.98-5.69-0.69
		c-1.96,3.96-4.05,7.86-5.77,11.92c-0.42,0.98,0.4,2.48,0.64,3.74c2.75-1.22,6.33-0.56,8.27-3.63
		C15.21,93.09,15.91,90.34,16.62,87.58z"/>
	<path class="st0" d="M23.35,67.38c-0.68-1.69-0.88-3.99-0.31-5.68c4.32-12.76,3.72-25.96,3.87-39.1c0.01-0.82-0.82-1.65-1.26-2.47
		l-0.09-0.06l-0.35,0.01l-0.31-0.16c-0.82,0.54-1.65,1.08-2.47,1.62c-0.15,1.35-0.33,2.69-0.44,4.04c-0.26,3.2-0.49,6.4-0.73,9.61
		c-0.12,0.72-0.23,1.44-0.35,2.17c-0.15,0.52-0.31,1.04-0.46,1.56c-0.64,2.37-1.28,4.73-1.92,7.1c-1.31,2.43-2.62,4.87-4.06,7.55
		c-2.24-1.74-4.06-3.16-6.05-4.71c-0.99,0.65-1.79,1.17-2.58,1.69c-1.82,1.54-1.19,2.92,0.26,4.26c0.68,0.24,1.36,0.49,2.05,0.73
		c0.1,0.4,0.21,0.8,0.31,1.2c0.22,0.27,0.45,0.55,0.67,0.82c1.97,2.04,1.53,3.71-0.77,5.11c-0.17,0.16-0.37,0.23-0.6,0.21
		c-0.83,0-1.67,0.01-2.5,0.01c-0.72-0.2-1.44-0.4-2.17-0.61c-0.7,0.02-1.41,0.03-2.11,0.05c-0.26,0.18-0.51,0.35-0.77,0.53
		C0,64.55-0.48,66.32,1.52,67.37l0.08,0.02c1.89,1.59,3.78,3.19,5.67,4.78l0,0l0.07,0.05c0.59,0.35,1.18,0.7,1.77,1.05l0.03,0.25
		c1.5,0,3,0.01,4.5,0.01l-0.05-0.26c1.94-0.41,3.88-0.82,5.83-1.23c0.24,0.49,0.48,0.98,0.71,1.47c0.86,1.92,1.72,3.84,2.59,5.75
		c0.51,2.77,1.01,5.55,1.52,8.32c0,0.5-0.01,1-0.01,1.49c-0.08,1.2-0.15,2.39-0.23,3.59l0.01,0.09c-0.21,0.77-0.42,1.53-0.63,2.3
		c-0.95,2.83-1.91,5.66-2.86,8.49c-0.04,0.15-0.08,0.31-0.1,0.46c-1.49,0.37-2.97,0.74-4.46,1.12c-0.71,1.9-1.42,3.8-2.13,5.7
		c-0.03,0.25-0.07,0.51-0.1,0.76c0.54,1.69,1.07,3.38,1.61,5.07c0.43,0.02,0.86,0.04,1.28,0.06c1.75-0.93,3.49-1.86,5.24-2.8
		c4.2-1.64,6.29-5.03,7.53-9.12c0.18-1.36,0.37-2.71,0.55-4.07c0.12-0.9,0.24-1.81,0.36-2.71c-0.24-5.75-0.47-11.5-0.71-17.25
		C27.48,76.33,25.19,71.94,23.35,67.38z"/>
	<path class="st0" d="M79.74,67.16c-1.29-0.45-2.59-0.89-3.88-1.34h-0.01c-0.25-0.01-0.5-0.02-0.75-0.02
		c-0.49-0.04-0.97-0.08-1.46-0.12c-1.03-0.04-2.05-0.07-3.08-0.11c-0.47,0-0.95,0.01-1.42,0.01c-0.76,0.04-1.52,0.08-2.29,0.13
		c-2.33,0.49-4.66,0.98-6.99,1.47c-1.02,0.24-2.03,0.49-3.05,0.73c-0.73,0.27-1.46,0.54-2.19,0.81c-0.38,0.01-0.77,0.01-1.15,0.02
		c-0.8-1.48-1.61-2.96-2.59-4.76c-0.81,0.76-1.4,1.32-1.99,1.87c-3.67,3.8-7.62,7.44-7.87,13.1c0.31,0.34,0.62,0.68,0.93,1.03
		c2.52-1.29,5.05-2.57,7.57-3.86c0.96-0.47,1.93-0.95,2.89-1.42c0.15-0.18,0.3-0.35,0.46-0.52c0.66-0.06,1.32-0.12,1.97-0.18
		c0.23-0.24,0.45-0.48,0.68-0.73c0.81-0.22,1.61-0.44,2.42-0.67c0.74-0.14,1.47-0.29,2.21-0.43c0.55-0.15,1.1-0.29,1.66-0.44
		c0.03-0.16,0.08-0.31,0.15-0.45c1.05,0.11,2.11,0.21,3.16,0.32c-0.24,1.37-0.26,2.91-2.23,2.99c-0.16,0.14-0.34,0.23-0.55,0.28
		c-0.27,0.4-0.54,0.81-0.81,1.21c-0.22-0.02-0.44-0.07-0.66-0.13c-1.01,0.12-2.02,0.24-3.03,0.36c-1.36,0.47-2.72,0.95-4.08,1.42
		c-0.42,0.02-0.84,0.03-1.27,0.05c-0.47,0.18-0.94,0.36-1.4,0.54c-0.5,0.31-1.01,0.63-1.51,0.94c-0.06,0.25-0.13,0.49-0.19,0.74
		c-1.97,2.29-3.93,4.58-5.9,6.86c-0.01,0.7-0.01,1.41-0.02,2.11l-0.3,0.01l-0.29-0.04c-0.09,0.31-0.18,0.62-0.27,0.93
		c-0.1,0.28-0.19,0.57-0.29,0.85c-0.08,0.73-0.17,1.45-0.25,2.18c-0.17,0.73-0.34,1.46-0.51,2.18c0.62,0.78,1.24,1.55,1.92,2.39
		c1.81-0.96,3.2-1.69,4.59-2.43c1.01-0.03,2.01-0.06,3.02-0.08c0.49,0.28,0.99,0.56,1.48,0.84c0.02,0.49,0.05,0.99,0.07,1.48
		c-0.52,1.02-1.03,2.04-1.55,3.05c-0.11,0.22-0.21,0.43-0.32,0.65c0.1,0.88,0.19,1.77,0.29,2.65c0.54-0.06,1.07-0.11,1.61-0.17
		c1.48-0.08,2.96-0.15,4.44-0.23c0.15,0.11,0.26,0.25,0.33,0.42c0.25,0.02,0.45,0.13,0.6,0.33c0.17,0.17,0.34,0.35,0.51,0.52
		c0.14,0.04,0.25,0.12,0.32,0.25c0.59,0.09,1.19,0.18,1.78,0.27c0.3,0.45,0.6,0.91,0.9,1.36c0.52,0.14,1.03,0.27,1.55,0.41
		c0.18,0.09,0.36,0.18,0.54,0.28c3.65,1.01,7.28,2.13,10.98,2.94c0.88,0.19,2-0.68,3.01-1.06l0.16,0.02l0.23,0.02l0.15-0.17
		c1.74-3.3,3.47-6.6,5.21-9.9c0.29-0.8,0.58-1.6,0.87-2.4c0.18-0.52,0.36-1.04,0.54-1.57c-0.02-0.25,0.06-0.46,0.24-0.63
		c0.14-0.37,0.28-0.73,0.42-1.1c-0.05-0.17-0.01-0.32,0.12-0.44c0.16-1.48,0.27-2.97,0.47-4.45c0.91-6.48,0.6-12.89-0.9-19.43
		C83.27,68.32,81.51,67.74,79.74,67.16z M80.68,88.69c-0.42,1.41-0.74,2.84-1.11,4.27c-0.24,0.09-0.33,0.26-0.26,0.51
		c-0.19,0.02-0.38,0.05-0.57,0.09c0.05,0.25,0.1,0.5,0.15,0.75c-0.39,0.36-0.78,0.71-1.16,1.07c-0.64,1.61-1.28,3.22-1.92,4.84
		c-0.44,0.54-0.89,1.08-1.33,1.63l-0.08,0.08c-0.21,0.22-0.42,0.44-0.63,0.67l-0.35-0.1c-0.64,0.26-1.28,0.52-1.91,0.77
		c-0.1-0.21-0.16-0.43-0.2-0.65c-0.48-0.26-0.97-0.52-1.45-0.79c-0.18-0.99-0.37-1.98-0.55-2.98c-1.11-0.84-2.22-1.69-3.24-2.46
		c-1.23,0.36-2.13,0.63-3.03,0.9c-0.7,0.01-1.41,0.02-2.11,0.03l-0.06-0.03c-0.52-0.49-1.05-0.99-1.57-1.48
		c0.83-0.91,1.67-1.81,2.5-2.72c0.94-0.3,1.88-0.61,2.82-0.91c3.21-0.37,5.06-2.64,6.89-4.94l0.2,0.07c0.1-0.42,0.2-0.85,0.3-1.27
		c0.55-4.75-3.73-4.53-6.87-6.08c1.82-1.53,3.28-2.75,4.57-3.83c0.41-1.54,0.76-2.83,1.11-4.12l0.06,0.03
		c3.07-0.78,4.9,1.84,7.37,2.69C82.61,78.75,82.18,83.62,80.68,88.69z"/>
	<path class="st0" d="M407.34,100.32c0.03-0.52,0.07-1.05,0.1-1.57c-0.03-0.96-0.06-1.93-0.09-2.89c-0.25-0.38-0.5-0.76-0.76-1.14
		c-0.23-0.62-0.46-1.24-0.68-1.86l-0.07-0.12c-0.27-0.43-0.53-0.87-0.8-1.3l-0.08-0.09c-0.16-0.23-0.31-0.46-0.47-0.7
		c-0.75-1.4-1.5-2.79-2.26-4.19c-2.06-0.02-4.12-0.03-6.19-0.05c-4.06,0.38-8.11,0.82-12.18,1.09c-1.42,0.09-2.78-0.35-2.57-2.3
		c0.24-0.34,0.48-0.69,0.72-1.03l0.2-0.22c0.78-0.57,1.49-1.31,2.36-1.66c1.36-0.53,2.82-0.79,4.24-1.17
		c-0.09-0.13-0.18-0.25-0.28-0.38c0.1,0.12,0.19,0.25,0.28,0.38c1.17-0.06,2.34-0.12,3.51-0.17c0.73-0.07,1.46-0.14,2.19-0.21
		c0.36-0.22,0.71-0.44,1.07-0.66l0.11-0.2l0.18,0.1c0.46-0.22,0.92-0.44,1.38-0.66c0.13-0.22,0.26-0.44,0.39-0.66
		c1.07-2.32,2.13-4.64,3.38-7.36c-1.11-2.32-2.25-4.68-3.38-7.03c-0.46-0.56-0.93-1.13-1.39-1.69l0.02-0.1
		c-0.2-0.56-0.39-1.12-0.59-1.69c-3.37-1.07-6.74-2.15-10.11-3.22l-0.02-0.01c-0.31-1.23-0.62-2.47-1.07-4.25
		c1.99-0.42,3.58-0.75,5.17-1.08c1.87-0.26,3.73-0.53,5.6-0.79c2.98-1.97,3.04-5.4,4.12-8.31c0.09-0.26,0.18-0.51,0.28-0.77
		c-0.02-0.24,0.04-0.46,0.19-0.65c0.17-0.35,0.34-0.7,0.51-1.06c-0.51-3.11-1.03-6.22-1.54-9.34c-0.39-0.27-0.78-0.53-1.17-0.8
		c-0.09-0.26-0.18-0.51-0.27-0.77c-0.18-0.71-0.36-1.41-0.54-2.12c-5.22-0.09-10.44-0.19-15.66-0.28c-2.23,0.07-4.46,0.12-6.69,0.23
		c-4.31,0.2-8.61,0.44-12.92,0.66c-0.99,0.02-1.97,0.03-2.96,0.05c-1.04,0.35-2.07,0.69-3.11,1.04c-0.23,0.06-0.47,0.13-0.7,0.19
		c-0.63,1.64-1.25,3.28-1.88,4.92c-0.57,0.94-1.14,1.88-1.7,2.82c0.07,0.69,0.13,1.38,0.2,2.07l-0.08,0.01
		c0.16,0.31,0.32,0.62,0.48,0.93c0.29,0.44,0.59,0.89,0.88,1.33c2.18,1.09,4.36,2.18,6.54,3.28l0.04-0.02
		c0.31,0.24,0.62,0.47,0.93,0.71c3.57,1.34,4.38,4.19,4.16,7.6c0.12,0.15,0.14,0.3,0.05,0.47c0.42,5.14,0.09,5.7-4.38,7.54
		c-1.23,0.51-2.43,1.08-3.65,1.62l-0.02,0.01c-1.12,0.68-2.24,1.36-3.36,2.05l0,0c-1.51,0.56-2.97,1.15-2.39,3.24
		c0.15,0.22,0.31,0.44,0.46,0.67c0.23,0.3,0.46,0.6,0.68,0.89l-0.06-0.05c0.24,0.73,0.47,1.47,0.71,2.2
		c0.17,0.19,0.25,0.41,0.24,0.66c0.44,0.31,0.88,0.61,1.32,0.92l0.07-0.01c0.26,0.46,0.52,0.93,0.78,1.39
		c0.25,0.1,0.51,0.19,0.76,0.29c0.26-0.02,0.52-0.05,0.79-0.07c0.43,0.43,0.86,0.85,1.29,1.28c0.26,0.22,0.51,0.45,0.77,0.67
		c0.83,1.26,1.66,2.52,2.49,3.78v0.04c0.82,2.56,1.34,5.09-0.91,7.27l-0.23,0.16c-1.19,0.32-2.39,0.65-3.58,0.97
		c-0.38-0.01-0.77-0.02-1.15-0.03c-0.54,0.05-1.09,0.1-1.63,0.14c-0.53,0.19-1.07,0.39-1.6,0.58c-3,0.39-6.01,0.78-9.01,1.17
		c-1.23,0.09-2.46,0.19-3.68,0.28c-2.27,0.55-4.54,1.1-7.27,1.77c0,3.87,0,7.75,0,12.39c2.22,0.39,4.7,0.83,7.17,1.26
		c0.53,0.06,1.05,0.13,1.58,0.19c0.13-0.14,0.28-0.24,0.46-0.3c0.08,0.16,0.17,0.31,0.28,0.46c7.15,0.07,14.29,0.11,21.44,0.23
		c2.33,0.04,4.65,0.31,6.98,0.47c6.54,0.28,13.08,0.55,19.61,0.83c1.46-0.07,2.92-0.12,4.38-0.21c3.03-0.18,6.07-0.38,9.1-0.57
		c0.28,0.08,0.55,0.15,0.83,0.23c0.26-0.11,0.51-0.21,0.77-0.32c0.23-0.17,0.45-0.34,0.68-0.52c0.27-0.31,0.54-0.62,0.82-0.93
		c0.21-0.29,0.43-0.57,0.64-0.86c-0.03-0.25,0.03-0.49,0.16-0.7c0.1-0.32,0.19-0.64,0.29-0.95c0.08-0.89,0.16-1.79,0.24-2.68
		c-0.05-0.2-0.12-0.39-0.13-0.59C407.13,100.48,407.27,100.4,407.34,100.32z"/>
	<path class="st0" d="M303.31,59.79c-0.33-2.36-1.27-4.48-1.9-6.72c0.05-0.25,0.11-0.5,0.16-0.75c-0.28-0.49-0.55-0.99-0.83-1.48
		c-1-1.99-2-3.97-3-5.96c-0.17-0.1-0.35-0.14-0.55-0.12c-0.08-0.5-0.15-1-0.23-1.5l0.08-0.26c-0.49-0.63-0.99-1.27-1.48-1.9
		c-2.95-3.36-5.46-7.27-10.22-8.43l-0.13-0.07c-0.14-0.38-0.27-0.77-0.41-1.15c-1.37-0.07-2.74-0.15-4.12-0.22
		c-0.1-0.17-0.2-0.35-0.28-0.53c-0.21,0.04-0.4-0.01-0.57-0.15c-0.73-0.24-1.46-0.48-2.19-0.72c-4.01,0.01-8.02,0.02-12.03,0.03
		c-1.75,0.24-3.5,0.48-5.25,0.72c-0.36,0.21-0.71,0.41-1.07,0.62c-3.96,0.77-8,1.36-10.92,4.59c-4.7,2.14-7.01,6.22-8.92,10.75
		c0.67,1.35,1.31,2.66,1.96,3.97c0.03,0.43,0.07,0.85,0.1,1.28c0.35,0.37,0.69,0.75,1.04,1.12l-0.07-0.04
		c0.31,0.27,0.61,0.54,0.92,0.81c0.65,0.07,1.3,0.14,1.94,0.21c2.23-0.47,3.77,0.28,4.6,2.85c-0.52,1.05-1.15,2.32-1.78,3.6
		l0.06,0.1c-0.18,0.29-0.36,0.58-0.54,0.87c-1.53,1.48-3.07,2.95-4.6,4.43l-0.07,0.08c-0.21,0.19-0.42,0.37-0.63,0.56
		c-0.41,0.65-0.82,1.3-1.24,1.95c-0.62,0.17-1.23,0.35-1.85,0.52c-0.5,0.38-1,0.75-1.5,1.13c-0.24,0.14-0.48,0.28-0.72,0.42
		c-0.78,0.3-1.55,0.61-2.33,0.91c-0.44,0.21-0.89,0.42-1.33,0.62c-1.28,0.7-2.57,1.4-3.85,2.1c-2.77,2.16-5.54,4.31-8.31,6.47
		c-1.29,1.3-2.64,2.54-3.8,3.94c-0.19,0.23,0.47,1.17,0.74,1.79c4.81,0.69,9.63,1.38,14.44,2.07c0.28,0.03,0.56,0.06,0.83,0.08
		c0.7,0.09,1.39,0.18,2.09,0.27c0.46-0.04,0.92-0.07,1.38-0.11c-0.02,0.15,0,0.3,0.05,0.44c1.03,0.28,2.07,0.57,3.1,0.85
		c0.39,0.01,0.78,0.02,1.17,0.04c2.48,2.11,5.01,4.17,7.42,6.36c1.44,1.31,2.7,2.82,4.03,4.24c0.73,1.27,1.46,2.54,2.19,3.8
		c0.5,0.25,0.99,0.5,1.49,0.75c0.51,0.5,1.02,0.99,1.53,1.49c1.71,0.92,3.41,1.84,5.12,2.75c0.26,0.14,0.51,0.28,0.77,0.41
		c0.6,0.33,1.21,0.65,1.81,0.98c0.98,0.53,1.96,1.06,3.01,1.62c6.16-0.88,12.34-1.66,17.33-5.98c0.22-0.23,0.45-0.46,0.67-0.68
		c0.26-0.26,0.52-0.53,0.79-0.79c1.09-1.99,2.19-3.97,3.28-5.96c0.85-1.46,1.7-2.93,2.55-4.39c0.71-1.16,1.56-2.26,2.11-3.49
		c1.85-4.19,3.6-8.43,5.39-12.65c-0.06-0.21-0.01-0.39,0.16-0.54c0.25-0.73,0.5-1.45,0.75-2.18l0.01-0.06
		c0.16-1.57,0.31-3.15,0.46-4.72c0.26-0.33,0.52-0.66,0.77-1c0.12-0.86,0.24-1.71,0.36-2.57c-0.05-0.74-0.1-1.49-0.16-2.23
		c0.08-0.39,0.16-0.78,0.24-1.18C303.32,62.51,303.32,61.15,303.31,59.79z M277.42,73.74c0,0-1.06,2.54-1.59,3.81
		c-0.68,1.08-1.36,2.16-2.05,3.25c0.28,0.04-2.54,1.84-4.35,3.15c-2.05-1.25-4.15-2.52-6.26-3.8l0,0c-0.52-0.5-1.04-1-1.55-1.5
		c-0.13-0.22-0.25-0.43-0.38-0.65c0.05-0.29,0.1-0.59,0.14-0.88c1.32-3.68,2.64-7.37,3.96-11.05c0.13-0.47,0.25-0.94,0.38-1.42
		c1.22-2.53,2.43-5.06,3.65-7.6c2.29-4.18,6.28-3.19,10.26-3.04c0.89,1.19,1.77,2.38,2.66,3.57c0,0.49,0,0.98,0,1.47
		c-1.58,4.77-4.75,14.31-4.75,14.31L277.42,73.74z"/>
	<path class="st0" d="M189.28,70.68c2.97-2.19,5.94-4.39,9.15-6.76c-0.48-1.74-0.88-3.2-1.29-4.69c-1.73-0.24-3.07-0.44-4.4-0.62
		c-1.36-0.19-2.72-0.36-4.08-0.54l-0.03,0.06c-0.3-0.47-0.61-0.93-0.91-1.4l-0.01-0.04c-1.32-3.97-5.15-4.6-8.25-6.21
		c-0.03-1.07-2.84,0.22-1.61-1.91l0.05-0.03c0.25-0.21,0.49-0.42,0.74-0.63l0.04-0.07c1.86-1.75,3.61-3.65,5.62-5.2
		c2.5-1.92,5.22-3.56,7.85-5.32c0.05-0.12,0.12-0.24,0.21-0.34c0.7-0.37,1.4-0.75,2.09-1.12c1-0.75,2-1.49,2.99-2.24
		c-0.79-1.07-1.58-2.14-2.03-2.74c-3.26-0.25-5.91-0.45-9.24-0.7c1.59-2.09,2.53-3.33,3.48-4.57c2.24-0.89,2.62-2.7,2.39-4.82
		c0.03-0.47,0.05-0.94,0.08-1.41c-0.41-1.38-0.91-2.73-1.22-4.13c-0.28-1.23-0.36-2.51-0.53-3.77c0.05-0.89,0.1-1.79,0.15-2.68
		c-0.56-2.93-1.12-5.87-1.68-8.8c-3.64,0-7.29,0-11.52,0c-0.68,5.28-1.3,10.12-1.92,14.97c-0.1,0.43-0.19,0.86-0.29,1.29
		c-0.33,0.27-0.67,0.55-1,0.82c-0.49,0.12-0.97,0.23-1.46,0.35c-1.09,0.16-2.19,0.32-3.28,0.48c-0.32,0.04-0.64,0.07-0.96,0.11
		c-0.12,0.27-0.23,0.54-0.35,0.8c-0.23,0.09-0.46,0.17-0.69,0.26c-0.23,0.07-0.46,0.13-0.69,0.2c-0.71,0.54-1.43,1.08-2.14,1.63
		c-0.31,4.78,4.18,5.19,6.72,7.28c0.43,2.49,0.84,4.86,1.24,7.24c0.79,0.73,1.59,1.47,2.09,1.92c2.38,0.22,4.32,0.4,6.26,0.58
		c0.13,0.36,0.27,0.72,0.4,1.08c-1.1,0.96-2.21,1.93-3.31,2.89l-0.01-0.04c-2.77,2.49-5.53,4.98-8.3,7.46
		c-0.22,0.48-0.44,0.96-0.67,1.44l-0.1,0.1c-1.7,1.33-3.4,2.65-5.1,3.98c0.08,0.38,0.15,0.76,0.23,1.14c3.64,0,7.29,0,10.93,0
		l0.01-0.02c0.81,0.25,1.61,0.49,2.42,0.74c2.01,0.24,4.22-0.06,5.44,2.16c0.19,0.34,0.38,0.67,0.57,1.01
		c-0.02,0.46-0.03,0.93-0.05,1.39c-0.3,0.56-0.6,1.13-0.91,1.69c-0.74,0.22-1.49,0.44-2.23,0.65c-1,0.25-1.99,0.49-2.99,0.74
		l-0.06,0.04c-0.28,0.41-0.56,0.82-0.85,1.23l-0.03,0.07c-0.22-0.1-0.46-0.18-0.7-0.23c-0.23,0.14-0.47,0.28-0.7,0.43
		c-0.52,0.41-1.04,0.82-1.56,1.24c-0.71,0.63-1.43,1.27-2.14,1.9c-0.47,0.95-0.95,1.9-1.42,2.85c0,0.42,0,0.85,0,1.27
		c0.67,0.12,1.35,0.24,2.02,0.36c0.09,0.16,0.17,0.33,0.24,0.49c1.4,0.17,2.8,0.33,4.2,0.5c0.45,0.4,0.9,0.8,1.34,1.21
		c0.01,0.69,0.01,1.39,0.02,2.08c-0.27,0.8-0.53,1.6-0.9,2.71c-0.38,0.16-1.04,0.43-1.69,0.7c-1.78,0.37-3.57,0.75-5.35,1.12v0.02
		c-4.35,2.47-7.16,6.37-9.73,10.49c-0.72,1.25-1.44,2.5-2.15,3.74c-0.08,0.42-0.17,0.83-0.25,1.25c-0.55,1.3-1.11,2.6-1.66,3.9
		c-0.35,0.56-0.7,1.11-1.04,1.67c-0.22,0.52-0.44,1.03-0.67,1.55c-0.26,0.85-0.52,1.7-0.79,2.55c-0.09,0.62-0.18,1.23-0.27,1.85
		c-0.42,2.11-0.85,4.22-1.27,6.33c0.09,0.17,0.06,0.31-0.09,0.43c0.57,2.48,1.14,4.95,1.71,7.43c1.02-0.11,2.05-0.22,3.07-0.33
		c0.6-0.71,1.2-1.42,1.8-2.13c3.41-1.86,2.15-5.35,2.85-8.15c0.12-0.95,0.24-1.89,0.37-2.84l-0.32,0.04
		c0.33-0.76,0.65-1.52,0.98-2.28c0.03-0.28,0.06-0.56,0.08-0.84c0.17-0.77,0.34-1.53,0.51-2.3c0.14-0.45,0.28-0.91,0.42-1.36
		c0.15-0.29,0.29-0.59,0.43-0.88c-0.29-3.79,1.06-6.91,3.83-9.46c0.91-0.4,1.83-0.79,2.74-1.19c1.08-0.88,2.16-1.76,3.24-2.65
		c2.63-0.8,5.17-2.44,8.04-0.81c1.63,1.5,0.54,2.86-0.22,4.24c-0.36-0.05-0.72-0.09-1.08-0.14l-0.05,0.31
		c-0.97,0.28-1.93,0.56-2.9,0.83c-1.04,0.03-2.08,0.06-3.12,0.09h-0.01c-0.71-0.01-1.42-0.02-2.13-0.03
		c-0.14,0.24-0.28,0.48-0.42,0.71c-0.05,0.26-0.1,0.51-0.15,0.77c-0.08,0.24-0.15,0.47-0.23,0.71c0.5,1.49,1.01,2.98,1.51,4.47
		c1.01,0.01,2.02,0.03,3.03,0.04c1.49,0.25,2.98,0.5,4.47,0.76l0.16,0.13l0.19-0.09c0.37,0.21,0.75,0.42,1.12,0.64
		c-0.31,1.49-0.63,2.98-0.77,3.68c-4.43-0.35-8.47-0.67-12.49-0.99c-0.63,3.27,0.87,5,2.86,6.49c0.74,0.16,1.49,0.31,2.23,0.47
		c0.22-0.15,0.45-0.29,0.67-0.44c0.45,0.06,0.91,0.13,1.36,0.19c0.61-0.03,1.22-0.07,1.82-0.1c0.44-0.34,0.88-0.67,1.33-1.01
		c0.22,0.49,0.44,0.98,0.67,1.47c-0.61,2.51-1.21,5.03-1.84,7.54c-0.82,3.25-2.55,5.64-6.18,6.19c-0.54,1.47-1.04,2.85-1.55,4.23
		c0.41,0.78,0.83,1.56,1.24,2.34c1.02,1.09,2.03,2.18,3.05,3.27c0.31,0.4,0.62,0.79,0.93,1.19c1.44-1.09,3.31-1.9,4.25-3.33
		c2.83-4.31,5.3-8.85,7.92-13.3c0.15-0.4,0.29-0.8,0.44-1.21c0.32-1.11,0.64-2.22,0.97-3.33c0.14-0.62,0.29-1.24,0.43-1.85
		c0.2-0.38,0.41-0.76,0.61-1.14c0.22-1.04,0.44-2.08,0.66-3.12c-0.1-0.15-0.06-0.26,0.1-0.34c0.15-0.83,0.31-1.67,0.46-2.5
		c-0.08-0.17-0.06-0.33,0.05-0.47c-0.06-0.3-0.13-0.6-0.19-0.9c0.14-0.45,0.27-0.91,0.41-1.36c-0.12-3.05-0.25-6.09-0.37-9.14
		c-0.58-4.41,0-9.18-3.81-12.61c-0.34-0.28-0.68-0.56-1.02-0.85c0.09-1.02,0.18-2.05,0.27-3.08c0.13-0.15,0.17-0.32,0.11-0.51
		c0.93-1.83,1.87-3.66,2.8-5.49C189.09,71.4,189.19,71.04,189.28,70.68z M189.1,89.06L189.1,89.06c-0.03,0-0.06,0-0.1,0
		C189.04,89.06,189.07,89.06,189.1,89.06z"/>
	<path class="st0" d="M157.31,73.48c0.14-0.2,0.28-0.39,0.42-0.59c0.8-1.26,1.6-2.51,2.39-3.77l0,0l0.06-0.13
		c1.58-1.05,1.32-2.34,0.58-3.78c-0.65-1.27-1.18-2.6-1.76-3.91c-0.11-0.28-0.22-0.56-0.33-0.84c-0.06-0.28-0.13-0.56-0.19-0.84
		l-0.35,0.03l-0.35-0.02c0.09-0.23,0.22-0.44,0.4-0.61c-1.64-1.22-3.28-2.44-4.92-3.66c0.3-1.45,0.6-2.89,0.91-4.34l0.03,0.06
		c2.1-1.1,4.21-2.19,6.31-3.29c0.48-0.11,0.96-0.23,1.45-0.34c0.08-0.32,0.15-0.64,0.23-0.97l0,0c0.26-0.31,0.52-0.62,0.78-0.94
		c0.05-0.51,0.09-1.02,0.14-1.52c-0.11-0.23-0.21-0.46-0.32-0.68c-0.61-0.89-1.22-1.77-1.92-2.8c-1.59-0.11-3.16-0.22-4.74-0.33
		c-2.39,0.07-4.77,0.15-7.16,0.22c-1.17,0.02-2.33,0.03-3.5,0.05l-0.08,0.01c-0.38-0.15-0.77-0.31-1.15-0.46
		c-0.02-0.64-0.04-1.27-0.06-1.91c0.22-0.52,0.44-1.04,0.66-1.56v-0.01c1.59-1.47,3.18-2.93,4.78-4.4l0.18-0.24
		c1.26-0.76,2.43-1.94,3.78-2.19c3.48-0.66,5.09-2.74,5.61-6.01c0-1.22,0-2.43,0-3.46c-1.67-1.07-3.38-1.65-4.29-2.84
		c-2.81-3.72-6.55-4.55-10.84-4.23c-2.27,1.5-4.54,2.99-6.81,4.49h-0.04c-0.72,0.52-1.44,1.04-2.15,1.55
		c-2.46,1.83-5.45,3.24-7.27,5.57c-3.09,3.97-5.45,8.51-8.11,12.81c-0.85,0.91-1.71,1.82-2.56,2.72c-0.7,1.51-1.41,3.02-2.11,4.52
		c-0.13,0.49-0.27,0.98-0.4,1.47c0.09,0.24,0.17,0.48,0.26,0.72c-0.2,0.11-0.41,0.21-0.61,0.3c0.06,0.18,0.02,0.34-0.12,0.46
		c-0.6,2.48-1.21,4.96-1.81,7.44c-0.02,0.51-0.05,1.02-0.07,1.53c0.14,1.77,0.29,3.53,0.43,5.3c0.23,6.25,0.46,12.5,0.69,18.75
		c0.48,2.1,0.96,4.19,1.44,6.29c0.43,0.2,0.87,0.4,1.3,0.6c0.01,0.2-0.02,0.39-0.08,0.58c0.97-0.12,1.94-0.23,2.91-0.35
		c1.18-0.74,2.7-1.24,3.48-2.28c1.44-1.95,2.45-4.22,3.64-6.36c0.18-0.4,0.36-0.8,0.55-1.21c0.36-1.61,0.71-3.21,1.07-4.82
		c0.22-0.73,0.43-1.45,0.65-2.18c0.08-0.29,0.15-0.57,0.23-0.86c0.14-0.56,0.27-1.12,0.41-1.68c0.14-1.18,0.27-2.36,0.41-3.55
		c0.12-0.34,0.23-0.67,0.35-1.01c0.05-0.4,0.1-0.81,0.15-1.21c0.15-1.96,0.29-3.92,0.44-5.88c0.05-1.93,0.1-3.87,0.15-5.8
		c-0.19-2.86-0.38-5.71-0.58-8.57c0-2.44,0-4.88,0-7.51c1.3-0.74,2.55-1.45,3.8-2.16c0.99-0.51,1.98-1.02,2.98-1.52
		c1.15,0.05,2.3,0.1,3.45,0.15h0.06c0.16,0.43,0.33,0.85,0.49,1.28c-1.81,3-3.61,6.01-5.42,9.01c0.76,2.78,1.52,5.57,2.42,8.85
		c2.75,0.13,5.82,0.28,9.58,0.46c-1.81,2.11-3.21,3.65-4.5,5.27c-1.29,1.61-2.47,3.3-3.69,4.96c-0.17,0.18-0.34,0.37-0.5,0.55
		c-0.85,0.82-1.69,1.64-2.54,2.46c-0.6,1.21-1.2,2.42-1.8,3.63c-0.19,0.54-0.39,1.09-0.58,1.63c-0.63,2.18-1.26,4.36-1.77,6.14
		c1.59,2.1,2.85,1.94,4.15,0.73c1.12-1.57,2.24-3.14,3.36-4.71c0.22-0.13,0.32-0.32,0.32-0.57c-0.06-0.32-0.11-0.64-0.17-0.97
		c0.06,0.32,0.11,0.64,0.17,0.97c0.76-0.77,1.51-1.54,2.27-2.31c1.22-1.03,2.44-2.05,3.67-3.08c0.26,0,0.53,0.01,0.79,0.01
		c0.44-0.09,0.89-0.17,1.33-0.26c0.62,0.08,1.24,0.17,1.86,0.25c-0.1,0.98-0.19,1.97-0.29,2.95l-0.37-0.07
		c-0.34,0.31-0.67,0.62-1.01,0.94h-0.01c-0.96,0.52-1.92,1.03-2.87,1.55c-1.63,1.94-3.26,3.88-5.3,6.31
		c2.94,1.3,5.18,2.29,7.41,3.27c1.02-0.41,2.03-0.83,3.05-1.24c0.7-0.1,1.39-0.19,2.09-0.29C153.96,77.32,155.64,75.4,157.31,73.48z
		"/>
	<path class="st0" d="M172.64,100.34c-0.01-0.02-0.01-0.04-0.02-0.06c-0.01,0-0.02,0-0.04,0L172.64,100.34z"/>
	<path class="st0" d="M76.53,42.43c-0.02,0.01-0.03,0.01-0.05,0.02c0.02,0.03,0.03,0.07,0.05,0.1V42.43z"/>
</g>
</svg>
