<?xml version="1.0" encoding="utf-8"?>
<!-- Generator: Adobe Illustrator 27.0.0, SVG Export Plug-In . SVG Version: 6.00 Build 0)  -->
<svg version="1.1" id="Layer_1" xmlns="http://www.w3.org/2000/svg" xmlns:xlink="http://www.w3.org/1999/xlink" x="0px" y="0px"
	 viewBox="0 0 840 306.8" style="enable-background:new 0 0 840 306.8;" xml:space="preserve">
<style type="text/css">
	.st0{fill:#FFFFFF;}
</style>
<g>
	<g>
		<g>
			<path class="st0" d="M102.6,184.2c4.6,2.4,7.4-1.8,9.5-6.7c2.2-5.2,2.8-13.3,13.1-12c0,6,0.4,12.1-0.1,18
				c-0.7,7.2,1.4,13.9,7.7,16.3c3,1.1,8.6-3.3,12.4-6c4-2.9,7.3-6.9,10.9-10.5c0.8,0.6,1.5,1.2,2.3,1.8c-4,7-7.9,13.9-12.7,22.4
				c3.8-2.4,6.1-3.8,8.4-5.3c-2.2,7.9-9.5,9.1-15.1,12.4c-3.1,1.9-8.5,3.7-8.7,5.9c-0.2,3.1,2.8,7.2,5.6,9.5c2.1,1.6,6,0.9,10.7,1.5
				c-6.3,6.2-12,11.9-17.9,17.8c2.9,5,5.5,9.5,7.9,13.7c16.7-9.6,32.6-18.7,48.5-27.8c0.8,0.7,1.6,1.5,2.4,2.2
				c-2.5,16.1-5,32.1-7.8,50.2c2.8-3.4,4.5-4.9,5.6-6.8c5.5-9.1,11-18.2,16.4-27.4c2.5-4.2,4.5-8.7,6.7-13.1
				c1.1-2.2,2.6-6.5,3.3-6.4c3.2,0.6,7.4-0.9,8.5,5c1.1,6.1,4.9,11.8,6.7,17.8c1.8,6.3,6.2,6.6,11.1,6.2c5.6-0.5,6.4-4.1,5.8-9
				c-1.2-10.9-2.9-21.8-2.7-32.7c0.2-12.1,1.2-24.5,4-36.2c3.8-16.2,9.8-31.8,14.6-47.8c4-13.5-12.1-33.1-25.9-31.5
				c-4.1,0.5-7.9,2.7-11.9,3.9c-25.6,7.9-51.3,15.8-76,23.4c6.1-9,12.6-19.7,20.1-29.6c3.8-5,9.2-8.8,13.9-13.1
				c1.8-0.3,0.8-2.9,1.6-4.1c2.7-3.8,5.6-7.9,9.4-10.4c2.4-1.5,7.7-1.7,9.7,0c8.4,7.2,16.1,15.3,24.4,23.4c3.6-2,8.5-3,9.9-5.8
				c7-14.4,13.2-29.2,19.2-44c1.1-2.8,0.5-6.6-0.1-9.7c-5-25.6-30.6-37.5-52.2-39.7c-1.8-0.2-3.8,0.3-5.4,1.1
				C185.1,6.9,174,13,162.7,18.8c-2.5,1.3-6,1.1-7.9,2.9c-4.6,4.2-8.6,9-12.6,13.7c-3.8,4.4-7.3,9-11,13.5c-0.7-0.1-1.5-0.3-2.2-0.4
				c-0.4-6.9-1.1-13.8-1.1-20.7c-0.1-15.3-8.6-21.6-22.7-17.1c0.5,5.1,0.6,10.1,1.6,15c2.1,10-3.2,20.7,3.1,30.4
				c0.9,1.4,0.1,4.8-1.1,6.4c-6.7,8.5-2.7,17.4-1.4,26.2c0.1,0.8,1.8,2.2,2.4,2c9.5-2,11.9,7.3,17.8,10.9c2.1,1.3,5.2,2,7.6,1.5
				c3.8-0.7,7.5-2.6,11-3.9c0.9,1.8,1.5,2.4,1.4,2.8c-5.5,12.9-11.6,25.4-22.5,34.8c-2.2,1.9-3.8,4.7-5.6,7.1
				c-2.5,3.4-4.6,7.3-7.5,10.2c-5.9,5.7-12.2,10.9-18.4,16.3c-0.6,0.5-1.2,1.9-0.9,2.2C95.9,176.7,98.4,182,102.6,184.2z M173,216.1
				c9.3-3.5,18-8.4,28.6-13.5c-10.3-7.8-18.3-13.9-28.3-21.5c5.8-3.6,9.7-5.9,13.6-8.3c3.5-2.2,10.2-5.4,9.9-6.4
				c-1.6-5-4-11.2-8.1-13.5c-4.8-2.8-11.6-2.1-19.2-3.1c-2.3-11.6,0.8-15.4,16.4-18.7c7.9-1.7,15.5-5.1,23.5-6
				c8-0.9,16.3-0.2,24.2,1.3c2.1,0.4,4.8,6.7,4.4,9.9c-1.7,12.3-5.3,24.3-6.7,36.6c-1.8,16.4-2.2,32.9-2.8,49.4
				c-0.2,5.1-1.7,7.6-6.9,6.6c-6.1-1.1-14.5,1.2-14.3-9.7c0-1.1-4.4-3.6-6.2-3.2c-7,1.8-16.4-0.4-18.9,10.1
				c-0.2,0.9-1.4,1.9-2.3,2.3c-8.3,3.3-16.6,6.4-25.5,9.8C154.9,224.5,163,219.9,173,216.1z M164.1,198.1c2.4-4.8,4.8-9.7,7.2-14.5
				c0.8,0.3,1.7,0.5,2.5,0.8c0.9,3.4,1.7,6.8,2.8,11c-3.5,1.6-6.9,3-10.2,4.5C165.7,199.3,164.9,198.7,164.1,198.1z M204.7,16.4
				c7.5-0.9,24.9,9.6,27.5,16.8c0.8,2.3,1.1,4.9,1.8,8c-2,7.1-3.7,14.8-6.5,22.2c-0.6,1.7-5.1,3.6-6.8,2.9
				c-7.5-3-14.8-6.6-21.7-10.7c-1.7-1-2.4-4.9-2.5-7.5c-0.3-6.6,0.7-13.4-0.1-19.9C195.8,21.4,198.1,17.3,204.7,16.4z M184.5,27.8
				c-0.4,5.5-0.8,9.5-1.3,15.4c-4.7-3.3-7.9-5.6-12.9-9.1C176.2,31.5,179.7,30,184.5,27.8z M169.6,41.6c11.3,9.5,10.1,21.6-4.2,30.5
				C167,61.1,168.3,51.6,169.6,41.6z M129.4,84.8c0.8-8.4,0.9-15.7,2.5-22.8c0.5-2.5,4.4-4.6,7.2-6c3.5-1.7,7.4-2.4,11.8-3.8
				c0,7.6,0,15.7,0,24C144.1,79,137.3,81.7,129.4,84.8z M134.6,153.3c6.8-2.6,13.7-5.3,20.6-7.9c3.7,11.1,3,12.1-11.8,17.8
				c-9.3,3.6-3.9-7.3-9.8-7.3C133.9,155,134.2,154.2,134.6,153.3z"/>
		</g>
		<g>
			<path class="st0" d="M12.9,140.5c5.4,2.9,7.5,3,10.7-1.6c8.1-11.8,16.4-23.6,24.6-35.3c2-2.9,4-5.9,6-8.9c0.7,0.3,1.4,0.7,2.1,1
				c-0.6,2.9-0.6,6.1-2,8.6c-10,18.8-20.3,37.3-30.3,56.1c-7.4,14.1-14.4,28.4-21.5,42.7c-0.6,1.1-1.2,3.2-0.6,3.8
				c3.7,4.4,7.3,11,11.9,12c4.3,0.9,11.3-3.3,14.5-7.3c5.4-6.6,8.7-14.9,13.1-22.4c3.3-5.7,6.9-11.2,10.3-16.8
				c1.1,0,2.2,0.1,3.4,0.1c3.1,16.1,6.2,32.2,9.2,48.3c0.2,0.9-0.7,2.2-1.4,2.9c-3.1,3.4-5.8,8.1-9.7,9.8c-4,1.7-9.3,0.4-16.5,0.4
				c2.8,4.4,4.6,9.1,8,11.9c5.8,4.7,12.7,8.1,18.9,12.3c6.2,4.2,14.9,2.1,19.9-3.8c7.4-8.7,4.4-19.3,5.4-28.9
				c0.4-3.8-1.5-12-10.4-10.9c0.7-3.5,1.4-7,2-10.4c-0.3-0.1-0.6-0.2-1-0.4c-0.8,1.4-1.6,2.8-2.4,4.2c-0.5,0-1.1,0-1.6,0
				c-1-18.8-2.2-37.5-3-56.3c-0.2-5,0.6-10,1.5-14.9c1.1-6,3.2-11.9,3.9-17.9c1.4-12.2,3.4-24.5,2.8-36.6c-0.7-14,0.5-26.1,9-38.4
				c7-10.3-2.9-23.5-15.3-23c-1.8,0.1-4.1,2.9-5.1,5c-2.7,5.5-4.8,11.2-6.3,14.9c-14.1-5.3-27-10.6-40.2-14.9
				c-3.5-1.2-9-0.5-11.9,1.6c-2.4,1.7-3.7,7-3.2,10.4c0.7,4.9,4.8,4,8.7,2.6c2.2-0.8,5.4-1.3,7.1-0.3c9.4,5.5,18.5,11.6,28.4,18
				c-14.2,19.7-27.5,38.2-40.8,56.8c-1-0.3-2-0.6-3-0.8C7,99.6,5.8,85.3,4.6,70.9c-1.1,0-2.3,0-3.4,0.1c-0.4,14.5-0.6,29-1.2,43.5
				C-0.4,125.6,1.6,134.5,12.9,140.5z M37,173.5c-0.7-0.4-1.4-0.8-2.1-1.3c5.2-8.6,10.3-17.3,16.5-27.7
				C54.5,155.8,48.9,165.5,37,173.5z"/>
		</g>
	</g>
	<g>
		<g>
			<path class="st0" d="M591.8,73.3c-5-4.3-11-6.2-16.5-5.2c-2.6,0.5-5.2,0.9-7.7,1.3c-4,0.6-8.1,1.3-12.2,2.1
				c-9.3,2-18.3,4-27.9,6.2c-3.9,0.9-7.8,1.8-11.8,2.7l-3.3,0.7l1.7,2.9c5.6,9.8,14.5,14.4,24.8,12.8l0,0c-3.5,2-7,4.6-7.5,8.1
				c-4.4,34.2-8.2,65.2-11.5,94.9c-0.4,3.7-4,29.8,1.4,46.1c0.2,0.6,0.4,1.2,0.6,1.8c1.7,4.9,3.2,9.6,2.8,14.4l-3-3.9l0.6,3.9
				l-8.7-6.2l9.2,11.9c-1.2,1.9-2.5,3.9-4.5,6.9l-0.7,1l10.9,31l5.7-2.1l-5.1-31.8l3.5,2.4l1.2-2.9c0.7-1.7,1-3.3,1.4-4.9
				c0.6-2.7,1-5,3.1-7.4c3.2-3.7,3-9.7,2.8-15.5c-0.1-2.4-0.2-4.6,0-6.7l0.2-2.5l-2.6-0.2c-2.7-86.2-1.5-33.3,3.9-102l14.3,19.6
				l1.9-1c11.8-6.3,20.1-14.5,27.7-27.4c0.9-1.5,1.8-3,2.7-4.5c5.3-8.8,10.8-17.8,11.1-29.5C600.4,84.4,597.3,77.9,591.8,73.3z
				 M542.7,99l0.1-3.1c7.3-1.8,14.7-2.8,23.3-4c2.8-0.4,5.7-0.8,8.7-1.2c-1,2.7-2,5.4-2.9,7.9c-3.2,8.6-6,16.1-8.7,23.8
				c-0.5,1.5-1.4,3.3-2.6,3.7c-1,0.4-2.7-0.2-4.8-1.5C546.5,118.6,542.4,110.4,542.7,99z"/>
		</g>
		<g>
			<path class="st0" d="M493.6,157c-1.6-0.3-3.3-0.8-5.1-1.3c-5.3-1.5-10.8-3-15.3-1.1c-5.3,2.3-9.4,6.8-13.5,11.1
				c-1.7,1.8-3.4,3.7-5.2,5.4l-0.3,0.3c0-6.5-0.3-13.1-4.2-19.2c0-0.1,0.1-0.3,0.1-0.4c0.1-0.4,0.3-0.9,0.4-1.4l0.5-2.9l-3,0
				c0,0-0.1,0-0.1,0c-4.8,0-8.5,1.4-10.9,4c-2.7,2.9-3.8,7.2-3.4,12.9l0.2,3.1c0.8,10.2,1.6,20.8,1.2,31.1
				c-0.2,4.9,1.6,10.9,11,11.4c0.1,0,0.2,0,0.3,0c3.8,0,8.3-3.7,10.1-7.1c1.8-3.5,1.3-8.7-0.1-11.9c-2.3-5-2.3-10.4-2.2-16.1
				l7.6,2.3c0,0,0,0,0,0.1c-1,1.7-1.9,3.2-2.7,4.9c-4.3,9.6-0.4,21.7,8.5,26c2.4,1.1,5.1,2.3,7.7,1.2c2-0.8,3.5-2.7,4.6-5.7
				c2.9-8,6.3-16,9.7-23.7c2-4.6,4-9.4,6-14.1c0.8-2,0.7-6-0.1-7.3C495,157.6,494.4,157.1,493.6,157z"/>
		</g>
		<g>
			<path class="st0" d="M514.7,125.7c-0.1-3.1-1.3-7.2-4-9.1c-4.1-2.9-8.4-5.3-12.5-7.6c-1.5-0.8-2.9-1.6-4.3-2.4l-1-0.6l-29.3,11.7
				c9-16.1,19-29,37.8-31.3c2-0.3,4.3-0.7,5.1-2.6c0.2-0.4,0.4-0.8,0.5-1.2c1.2-2.6,2.5-5.5,1.5-8.1c-1.3-3.1-5.6-5.4-9-6.8
				c-4.7-1.9-11.5-3.5-15.2-1.8c-5,2.3-9.8,4.7-14.5,7c-2,1-3.9,1.9-5.8,2.9l-6.4,3.1l12.1,2.7c-1.9,3.1-3.7,6.1-5.5,9.1
				c-5.4,9-10.5,17.4-16.4,25.3c-5.3,7.2-11.6,14-17.6,20.6c-3.4,3.7-6.9,7.6-10.3,11.5c-1.2,1.4-1.2,3.4-1.2,5c0,0.5,0,1.1,0,1.5
				l-0.3,2.9l2.9-0.1c0.4,0,1,0,1.5,0.1c0.5,0,1.1,0.1,1.7,0.1c1.2,0,2.5-0.2,3.6-1.1c1.1-0.9,2.2-1.8,3.2-2.7
				c4.8-4,9.8-8.1,13.7-13c5.7-7.3,13.1-8.7,22.4-10.6c0.7-0.1,1.5-0.3,2.2-0.4l-10.3,14.1l8.1-3.3c3-1.2,5.8-2.5,8.6-3.8
				c10.6-4.9,19.7-9.1,30.3-5.6c2.3,0.8,5.1-1.2,6-1.8C514,128.2,514.7,127,514.7,125.7z"/>
		</g>
		<g>
			<path class="st0" d="M440,96.2c11.4-7.9,18.5-18,21-30.1c2.2-10.5-0.7-15.1-11.5-18.1c-1.3-0.4-2.5-0.7-3.9-1
				c-0.6-0.2-1.3-0.3-1.9-0.5l-1.8-0.5l-0.9,1.6c-1.7,3.1-3.5,6.1-5.2,9c-4.6,7.9-9,15.3-12.8,23.2c-1.8,3.8-1.1,11.3,2.1,14.1
				c2.1,1.9,6.5,3.4,10.2,3.4C437,97.4,438.7,97.1,440,96.2z"/>
		</g>
		<g>
			<path class="st0" d="M301.6,190.9c-2.8,1.5-4.4,5-5.5,7.9c-3.2,8.5,1.9,13.3,6,17.1c1.3,1.2,2.7,2.5,3.8,3.9l2.2,2.7l2.8-4.4
				l7.4,10l0.5-6.7c2-29.4,12.4-54.4,22.4-78.5l1.6-4c5-12.1,12.2-22.5,18.5-31.1c6.2-8.3,11.7-17.3,17-26c2.9-4.7,5.8-9.5,8.8-14.2
				c0.7-1.1,1.7-2.1,2.8-3.2c1.6-1.6,3.3-3.3,4.3-5.6c0.4-1,4-9.7,0.7-13.5c-2.9-3.3-7.4-5.7-14.2-7.7c-3.8-1.1-7.7,6.8-8.5,8.4
				c-2.5,5.3-5.4,10.4-8.3,15.4c-4.5,8-9.2,16.2-12.4,25.3c-2.3,6.4-6.5,12.1-11,18.2c-3,4.1-6.1,8.3-8.6,12.8
				c-5.9,10.6-10.5,21.3-15.9,34.3c-2.1,5.1-3.7,10.5-5.3,15.6c-0.3,0.9-0.6,1.9-0.8,2.8l-3.4-4.1l-0.6,5.9c0,0.5-0.2,1.1-0.3,1.7
				c-0.4,1.7-0.8,3.7,0.1,5.5C308.5,184.9,307.4,187.8,301.6,190.9z"/>
		</g>
		<g>
			<path class="st0" d="M406.9,132.3c0.4-1.7,0.9-3.4,1.3-5.1l17.1-6.1l-20.8,1.1c0.2-2.1,0.4-4.2,0.6-6.3c1-10.1,1.9-19.7,2.7-29.3
				v0c0.2-2.6-0.9-8.4-2.4-10.1c-0.5-0.6-1.3-0.9-2-0.9c-5.2,0-9.4,0.9-12.4,2.8c-2.7,1.6-4.5,4.1-6.3,6.6c-0.7,1-1.4,1.9-2.1,2.7
				c-7.5,8.8-15,17.7-22.5,26.5l-9.6,11.3l7.9,7.6l33.1-36.8c0,1.7,0,3.5,0,5.2c0,8.4-0.1,16.3,0.1,24.2c0.1,6.9-2.6,11.7-7,16
				c0.2-0.3,0.3-0.7,0.5-1c0-0.1,2.8-6.6-0.1-9c-2.1-1.7-6.7-3.4-9.5-1.8c-6.3,3.5-12.4,7.4-18.3,11.2c-2.1,1.3-4.2,2.6-6.2,4
				l-1.7,1l2,5.9l10.2,3.3l0.1,0c-6.4,11.8-15.7,21.1-25.1,29.3c-2.7,2.4-5.3,8.9-3.5,12.3c1.6,3,4.4,5,7.3,7.3c1.3,1,2.6,2,4,3.1
				l1.9,1.6l21.2-26.1l0,2.2c0.5,23.7,12.7,40.5,33.5,46.2c0.6,0.2,1.4,0.2,2.3,0.2c2.4,0,5.6-0.7,6.6-2.8c1.2-2.7,0.6-6.1-0.1-8.7
				c-0.6-2.5-1.5-4.9-2.3-7.3c-1.5-4.3-2.8-8.3-3-12.3c-0.7-17-0.8-34.9,0-53.1C404.3,142.5,405.5,137.6,406.9,132.3z M388.7,156.5
				c-0.6,13.6-1.3,28-2.2,42.2c-0.1,1.7-0.6,3.4-1.1,5.3c0,0,0,0,0,0c-2-1.1-3.8-2.2-4.8-3.6c-2.1-3-3.8-6.4-5.8-10.3
				c-0.9-1.9-1.9-3.8-3-5.9l-2.2-4.2L388.7,156.5z"/>
		</g>
	</g>
	<g>
		<path class="st0" d="M817.9,46.3c-7.4-8.4-18.4-11.5-33.4-9.5c-18,2.4-33.9,10.2-49.2,17.7c-4.5,2.2-9.2,4.5-13.8,6.6
			c-3.3,1.5-6.4,3.6-9.4,5.6c-6.8,4.6-13.3,9-22.6,7l-5.9-1.3l3.3,5.1c0.6,0.9,1.2,1.8,1.7,2.7c3.8,5.8,7.6,11.9,13.4,14.3
			c13,5.5,26.4,2.9,38.7-7.5c3.7-3.2,7.8-6.1,11.3-8.5c1.7-1.2,3.4-2.4,5.1-3.5c8.5-5.9,17.3-12,26.2-17.6c2.4-1.5,6.1-2.2,8.3-1.6
			c9.4,2.8,19.9,23.4,17,33.4c-0.8,2.6-1.6,5.3-2.4,7.8c-1.8,5.7-3.7,11.6-4.9,17.5c-1.2,5.9-2.1,11.9-3,17.7
			c-1.2,7.6-2.4,15.5-4.2,23c-1.5,6.2-3.3,9.7-8.3,9.7c0,0,0,0,0,0c-6,0-9.4-3.1-11.7-10.6c-0.1-0.3-0.2-0.7-0.2-0.9
			c0-2.9,0-5.8,0-8.6c0-8.5-0.1-17.3,0.3-25.9c0.1-2.3,1.4-5.2,2.7-6c8.1-5.1,5.6-12,4-16.6c-0.3-1-0.7-1.9-0.9-2.7
			c-0.8-3-5.1-3.5-10.6-4.1c-1-0.1-1.9-0.2-2.7-0.3c-11.6-1.7-20.4,3-26.9,14.2c-2.2,3.7-4.8,7-7.6,10.6c-1.4,1.8-2.9,3.6-4.3,5.5
			c-3.2,4.3-6.4,8.7-9.6,13c-10.2,13.8-6.8,9.2-17,23.3c-2,2.8-4,5.5-6,8.3c-9.8,13.5-14,19.6-23.5,33.7
			c-10.9,16.5-21.2,30.9-36.3,40.3c-14.4,8.9-31.1,14.7-49.8,17.2c-3.3,0.4-6.5,1.3-9.7,2.1c-1.4,0.4-2.7,0.7-4.1,1l-3.8,0.9
			l2.4,3.1c0.8,1,1.5,2.2,2.3,3.4c1.8,2.9,3.5,5.6,6.2,5.9c1.5,0.2,3,0.3,4.5,0.5c6.1,0.7,12.3,1.4,18.4,1.4c3.7,0,7.4-0.3,11-0.9
			c11.8-2.2,23.2-7.7,32.8-12.9c7.2-3.9,14.4-9.7,20.7-16.8c7.8-8.8,15.2-18.3,22.3-27.4c2.8-3.6,5.7-7.2,8.5-10.8
			c2.3-2.9,4.7-5.9,7.1-8.8c5.7-7.1,5.7-6.4,11.1-13.9c8.6-11.7,3.4-4.8,11.7-16.5c8-11.1,16.2-22.6,24.5-33.8
			c2.2-3,4.9-5.6,7.7-8.4c0.4-0.4,0.9-0.9,1.4-1.3l-0.4,3.7c-0.6,5.5-1.3,10.9-1.9,16.4c-1.8,15.4,2.8,36.1,21.8,43.9
			c2.7,1.1,5.1,2.7,7.8,4.5c1.2,0.8,2.5,1.7,3.8,2.4c4.2,2.6,9.7,2.9,14,0.9c3.2-1.5,5.3-4.2,5.7-7.3c0.2-1.6,0.5-3.2,0.7-4.8
			c1-6.4,2-13.1,2.3-19.7c0.6-18.6,6.4-36.7,17.5-55.1l0.2-0.3c5-8.2,11.2-18.5,6.2-29.1C832.6,65.9,825.6,55,817.9,46.3z"/>
	</g>
</g>
</svg>
